<svg width="170" height="100" viewBox="0 0 170 100" fill="none" xmlns="http://www.w3.org/2000/svg">
<g id="Logo 05">
<rect id="Bg Shape" width="170" height="100" fill="white"/>
<g id="Logo">
<g id="Page-1">
<g id="3">
<g id="8">
<path id="paperz" d="M65.9159 55.2236V46.3032H67.9774C69.5246 46.3032 70.8428 45.75 71.9319 44.6436C73.021 43.5372 73.5656 42.206 73.5656 40.6502V37.2143C73.5656 35.5979 73.0859 34.2668 72.1264 33.2209C71.0978 32.1231 69.7148 31.5742 67.9774 31.5742H62.3633V55.2236H65.9159ZM68.0682 42.7765H65.9159V35.2176H68.0682C68.6905 35.2176 69.1854 35.4056 69.5527 35.7816C69.9201 36.1576 70.1038 36.6568 70.1038 37.2791V40.728C70.1038 41.2898 69.9071 41.7717 69.5138 42.1736C69.1205 42.5756 68.6387 42.7765 68.0682 42.7765ZM79.2289 55.2236L80.0975 49.7909H83.8187L84.6615 55.2236H88.3956L84.441 31.5742H79.5271L75.5207 55.2236H79.2289ZM83.2871 46.3162H80.6421L81.9646 36.9939L83.2871 46.3162ZM96.3537 55.2236V46.3032H98.4153C99.9625 46.3032 101.281 45.75 102.37 44.6436C103.459 43.5372 104.003 42.206 104.003 40.6502V37.2143C104.003 35.5979 103.524 34.2668 102.564 33.2209C101.536 32.1231 100.153 31.5742 98.4153 31.5742H92.8011V55.2236H96.3537ZM98.506 42.7765H96.3537V35.2176H98.506C99.1284 35.2176 99.6232 35.4056 99.9906 35.7816C100.358 36.1576 100.542 36.6568 100.542 37.2791V40.728C100.542 41.2898 100.345 41.7717 99.9517 42.1736C99.5584 42.5756 99.0765 42.7765 98.506 42.7765ZM118.393 55.2236V51.658H111.806V45.1881H116.616V41.6096H111.806V35.1398H118.393V31.5742H108.253V55.2236H118.393ZM125.806 55.2236V46.3032H127.855C127.967 46.3032 128.075 46.2989 128.179 46.2902L130.357 55.2236H134.208L131.563 44.8899C132.834 43.7403 133.469 42.3271 133.469 40.6502V37.2143C133.469 35.5115 133.058 34.1803 132.237 33.2209C131.312 32.1231 129.856 31.5742 127.868 31.5742H122.254V55.2236H125.806ZM127.959 42.7765H125.806V35.2176H127.959C129.316 35.2176 129.994 35.9047 129.994 37.2791V40.728C129.994 41.2898 129.797 41.7717 129.404 42.1736C129.011 42.5756 128.529 42.7765 127.959 42.7765ZM148.856 55.2236V51.6839H142.296L148.856 35.1398V31.5742H138.458V35.1398H145.032L138.458 51.6839V55.2236H148.856Z" fill="#04091E"/>
<path id="LeadingPaperCompany" d="M64.9962 67.3378V66.8179H62.4219V61.619H61.793V67.3378H64.9962ZM67.3692 67.4719C67.7829 67.4719 68.1407 67.3895 68.4426 67.2246C68.7444 67.0597 68.9876 66.8319 69.1721 66.5412L68.7193 66.2393C68.5851 66.4629 68.4076 66.6376 68.1868 66.7634C67.966 66.8892 67.6879 66.952 67.3525 66.952C66.9388 66.952 66.6118 66.8095 66.3714 66.5244C66.131 66.2393 65.9996 65.8955 65.9773 65.493H69.2056C69.2112 65.4371 69.214 65.356 69.214 65.2498C69.214 64.8809 69.133 64.5468 68.9708 64.2478C68.8087 63.9487 68.5851 63.7125 68.3 63.5392C68.0149 63.3659 67.6963 63.2793 67.3441 63.2793C66.9695 63.2793 66.6355 63.3687 66.342 63.5476C66.0485 63.7265 65.8193 63.9752 65.6544 64.2939C65.4895 64.6125 65.4071 64.9731 65.4071 65.3756C65.4071 65.7781 65.4909 66.1387 65.6586 66.4573C65.8263 66.776 66.0583 67.0247 66.3546 67.2036C66.6509 67.3825 66.9891 67.4719 67.3692 67.4719ZM68.6438 65.0234H66.0108C66.0723 64.6712 66.219 64.3791 66.451 64.1471C66.683 63.9151 66.9807 63.7991 67.3441 63.7991C67.7186 63.7991 68.0149 63.9012 68.2329 64.1052C68.4509 64.3093 68.5879 64.6153 68.6438 65.0234ZM71.7632 67.4719C72.0427 67.4719 72.2998 67.409 72.5346 67.2833C72.7694 67.1575 72.9679 66.9828 73.13 66.7592V67.3378H73.7002V63.4134H73.13V64.0004C72.9679 63.7712 72.768 63.5937 72.5304 63.4679C72.2928 63.3421 72.0315 63.2793 71.7464 63.2793C71.3718 63.2793 71.0378 63.3687 70.7443 63.5476C70.4509 63.7265 70.2217 63.9738 70.0567 64.2897C69.8918 64.6055 69.8094 64.9647 69.8094 65.3672C69.8094 65.7753 69.8932 66.1387 70.0609 66.4573C70.2286 66.776 70.4606 67.0247 70.7569 67.2036C71.0532 67.3825 71.3886 67.4719 71.7632 67.4719ZM71.7464 66.952C71.4837 66.952 71.2489 66.885 71.042 66.7508C70.8352 66.6166 70.6731 66.4294 70.5557 66.189C70.4383 65.9486 70.3796 65.6747 70.3796 65.3672C70.3796 65.0653 70.4383 64.7956 70.5557 64.558C70.6731 64.3204 70.8352 64.1346 71.042 64.0004C71.2489 63.8662 71.4837 63.7991 71.7464 63.7991C72.0147 63.7991 72.2537 63.8662 72.4633 64.0004C72.673 64.1346 72.8365 64.3218 72.9539 64.5622C73.0713 64.8026 73.13 65.0737 73.13 65.3756C73.13 65.6775 73.0713 65.9486 72.9539 66.189C72.8365 66.4294 72.673 66.6166 72.4633 66.7508C72.2537 66.885 72.0147 66.952 71.7464 66.952ZM76.4673 67.4719C76.7469 67.4719 77.004 67.409 77.2388 67.2833C77.4736 67.1575 77.672 66.9828 77.8342 66.7592V67.3378H78.4044V61.25H77.8342V64.0004C77.672 63.7712 77.4722 63.5937 77.2346 63.4679C76.997 63.3421 76.7357 63.2793 76.4506 63.2793C76.076 63.2793 75.742 63.3687 75.4485 63.5476C75.155 63.7265 74.9258 63.9738 74.7609 64.2897C74.596 64.6055 74.5136 64.9647 74.5136 65.3672C74.5136 65.7753 74.5974 66.1387 74.7651 66.4573C74.9328 66.776 75.1648 67.0247 75.4611 67.2036C75.7574 67.3825 76.0928 67.4719 76.4673 67.4719ZM76.4506 66.952C76.1878 66.952 75.953 66.885 75.7462 66.7508C75.5394 66.6166 75.3773 66.4294 75.2599 66.189C75.1425 65.9486 75.0838 65.6747 75.0838 65.3672C75.0838 65.0653 75.1425 64.7956 75.2599 64.558C75.3773 64.3204 75.5394 64.1346 75.7462 64.0004C75.953 63.8662 76.1878 63.7991 76.4506 63.7991C76.7189 63.7991 76.9579 63.8662 77.1675 64.0004C77.3772 64.1346 77.5407 64.3218 77.6581 64.5622C77.7755 64.8026 77.8342 65.0737 77.8342 65.3756C77.8342 65.6775 77.7755 65.9486 77.6581 66.189C77.5407 66.4294 77.3772 66.6166 77.1675 66.7508C76.9579 66.885 76.7189 66.952 76.4506 66.952ZM80.0563 62.6504C80.1793 62.6504 80.2855 62.6056 80.3749 62.5162C80.4644 62.4267 80.5091 62.3205 80.5091 62.1975C80.5091 62.069 80.4644 61.9614 80.3749 61.8747C80.2855 61.7881 80.1793 61.7447 80.0563 61.7447C79.9277 61.7447 79.8201 61.7881 79.7334 61.8747C79.6468 61.9614 79.6035 62.0662 79.6035 62.1892C79.6035 62.3177 79.6468 62.4267 79.7334 62.5162C79.8201 62.6056 79.9277 62.6504 80.0563 62.6504ZM80.3414 67.3378V63.4134H79.7712V67.3378H80.3414ZM82.2784 67.3378V65.3756C82.2784 64.8948 82.379 64.5119 82.5803 64.2268C82.7815 63.9417 83.0834 63.7991 83.4859 63.7991C84.1791 63.7991 84.5257 64.1877 84.5257 64.9647V67.3378H85.0959V64.7132C85.0959 64.4169 85.0274 64.1597 84.8904 63.9417C84.7535 63.7237 84.569 63.5588 84.337 63.447C84.105 63.3352 83.8521 63.2793 83.5781 63.2793C83.2874 63.2793 83.0317 63.3477 82.8109 63.4847C82.5901 63.6217 82.4126 63.8159 82.2784 64.0675V63.4134H81.7082V67.3378H82.2784ZM88.1314 69.0148C88.4668 69.0148 88.7659 68.9366 89.0286 68.7801C89.2914 68.6235 89.4954 68.4069 89.6407 68.1302C89.7861 67.8535 89.8588 67.539 89.8588 67.1868V63.4134H89.2886V64.0004C89.1264 63.7712 88.9266 63.5937 88.689 63.4679C88.4514 63.3421 88.1901 63.2793 87.905 63.2793C87.5304 63.2793 87.1964 63.3687 86.9029 63.5476C86.6094 63.7265 86.3802 63.9738 86.2153 64.2897C86.0504 64.6055 85.968 64.9647 85.968 65.3672C85.968 65.7753 86.0518 66.1387 86.2195 66.4573C86.3872 66.776 86.6192 67.0247 86.9155 67.2036C87.2118 67.3825 87.5472 67.4719 87.9217 67.4719C88.2013 67.4719 88.4584 67.409 88.6932 67.2833C88.928 67.1575 89.1264 66.9828 89.2886 66.7592V67.1868C89.2886 67.567 89.181 67.88 88.9657 68.126C88.7505 68.372 88.4724 68.495 88.1314 68.495H86.5046V69.0148H88.1314ZM87.905 66.952C87.6422 66.952 87.4074 66.885 87.2006 66.7508C86.9938 66.6166 86.8317 66.4294 86.7143 66.189C86.5969 65.9486 86.5382 65.6747 86.5382 65.3672C86.5382 65.0653 86.5969 64.7956 86.7143 64.558C86.8317 64.3204 86.9938 64.1346 87.2006 64.0004C87.4074 63.8662 87.6422 63.7991 87.905 63.7991C88.1733 63.7991 88.4123 63.8662 88.6219 64.0004C88.8316 64.1346 88.9951 64.3218 89.1125 64.5622C89.2299 64.8026 89.2886 65.0737 89.2886 65.3756C89.2886 65.6775 89.2299 65.9486 89.1125 66.189C88.9951 66.4294 88.8316 66.6166 88.6219 66.7508C88.4123 66.885 88.1733 66.952 87.905 66.952ZM93.5567 67.3378V65.1492H94.7726C95.3037 65.1492 95.7299 64.9927 96.0514 64.6796C96.3728 64.3666 96.5335 63.9361 96.5335 63.3883C96.5335 62.8348 96.3798 62.4016 96.0723 62.0885C95.7649 61.7755 95.354 61.619 94.8397 61.619H92.9278V67.3378H93.5567ZM94.7558 64.6293H93.5567V62.1388H94.7558C95.1304 62.1388 95.4155 62.2451 95.6111 62.4575C95.8068 62.6699 95.9046 62.9802 95.9046 63.3883C95.9046 63.7964 95.8068 64.1052 95.6111 64.3149C95.4155 64.5245 95.1304 64.6293 94.7558 64.6293ZM98.982 67.4719C99.2615 67.4719 99.5187 67.409 99.7535 67.2833C99.9883 67.1575 100.187 66.9828 100.349 66.7592V67.3378H100.919V63.4134H100.349V64.0004C100.187 63.7712 99.9869 63.5937 99.7493 63.4679C99.5117 63.3421 99.2504 63.2793 98.9653 63.2793C98.5907 63.2793 98.2567 63.3687 97.9632 63.5476C97.6697 63.7265 97.4405 63.9738 97.2756 64.2897C97.1107 64.6055 97.0282 64.9647 97.0282 65.3672C97.0282 65.7753 97.1121 66.1387 97.2798 66.4573C97.4475 66.776 97.6795 67.0247 97.9758 67.2036C98.2721 67.3825 98.6075 67.4719 98.982 67.4719ZM98.9653 66.952C98.7025 66.952 98.4677 66.885 98.2609 66.7508C98.0541 66.6166 97.8919 66.4294 97.7745 66.189C97.6572 65.9486 97.5985 65.6747 97.5985 65.3672C97.5985 65.0653 97.6572 64.7956 97.7745 64.558C97.8919 64.3204 98.0541 64.1346 98.2609 64.0004C98.4677 63.8662 98.7025 63.7991 98.9653 63.7991C99.2336 63.7991 99.4726 63.8662 99.6822 64.0004C99.8918 64.1346 100.055 64.3218 100.173 64.5622C100.29 64.8026 100.349 65.0737 100.349 65.3756C100.349 65.6775 100.29 65.9486 100.173 66.189C100.055 66.4294 99.8918 66.6166 99.6822 66.7508C99.4726 66.885 99.2336 66.952 98.9653 66.952ZM102.554 69.0148V66.7508C102.716 66.98 102.916 67.1575 103.154 67.2833C103.391 67.409 103.653 67.4719 103.938 67.4719C104.312 67.4719 104.646 67.3825 104.94 67.2036C105.233 67.0247 105.463 66.7774 105.627 66.4615C105.792 66.1457 105.875 65.7865 105.875 65.384C105.875 64.9759 105.791 64.6125 105.623 64.2939C105.456 63.9752 105.224 63.7265 104.927 63.5476C104.631 63.3687 104.296 63.2793 103.921 63.2793C103.642 63.2793 103.384 63.3421 103.15 63.4679C102.915 63.5937 102.716 63.7684 102.554 63.992V63.4134H101.984V69.0148H102.554ZM103.938 66.952C103.669 66.952 103.43 66.885 103.221 66.7508C103.011 66.6166 102.848 66.4294 102.73 66.189C102.613 65.9486 102.554 65.6775 102.554 65.3756C102.554 65.0737 102.613 64.8026 102.73 64.5622C102.848 64.3218 103.011 64.1346 103.221 64.0004C103.43 63.8662 103.669 63.7991 103.938 63.7991C104.201 63.7991 104.435 63.8662 104.642 64.0004C104.849 64.1346 105.011 64.3218 105.129 64.5622C105.246 64.8026 105.305 65.0765 105.305 65.384C105.305 65.6859 105.246 65.9556 105.129 66.1932C105.011 66.4308 104.849 66.6166 104.642 66.7508C104.435 66.885 104.201 66.952 103.938 66.952ZM108.399 67.4719C108.812 67.4719 109.17 67.3895 109.472 67.2246C109.774 67.0597 110.017 66.8319 110.202 66.5412L109.749 66.2393C109.615 66.4629 109.437 66.6376 109.216 66.7634C108.996 66.8892 108.717 66.952 108.382 66.952C107.968 66.952 107.641 66.8095 107.401 66.5244C107.161 66.2393 107.029 65.8955 107.007 65.493H110.235C110.241 65.4371 110.244 65.356 110.244 65.2498C110.244 64.8809 110.163 64.5468 110 64.2478C109.838 63.9487 109.615 63.7125 109.33 63.5392C109.044 63.3659 108.726 63.2793 108.374 63.2793C107.999 63.2793 107.665 63.3687 107.372 63.5476C107.078 63.7265 106.849 63.9752 106.684 64.2939C106.519 64.6125 106.437 64.9731 106.437 65.3756C106.437 65.7781 106.52 66.1387 106.688 66.4573C106.856 66.776 107.088 67.0247 107.384 67.2036C107.68 67.3825 108.019 67.4719 108.399 67.4719ZM109.673 65.0234H107.04C107.102 64.6712 107.249 64.3791 107.481 64.1471C107.713 63.9151 108.01 63.7991 108.374 63.7991C108.748 63.7991 109.044 63.9012 109.262 64.1052C109.481 64.3093 109.617 64.6153 109.673 65.0234ZM111.652 67.3378V65.4595C111.652 65.1129 111.715 64.8124 111.841 64.558C111.967 64.3037 112.133 64.1094 112.34 63.9752C112.547 63.8411 112.77 63.774 113.011 63.774C113.15 63.774 113.279 63.8019 113.396 63.8578V63.338C113.273 63.2988 113.145 63.2793 113.011 63.2793C112.72 63.2793 112.459 63.3603 112.227 63.5224C111.995 63.6845 111.803 63.911 111.652 64.2016V63.4134H111.082V67.3378H111.652ZM118.059 67.4719C118.517 67.4719 118.913 67.3573 119.245 67.1281C119.578 66.8989 119.845 66.5663 120.046 66.1303L119.518 65.8116C119.328 66.1862 119.122 66.4615 118.901 66.6376C118.681 66.8137 118.372 66.9017 117.975 66.9017C117.656 66.9017 117.377 66.8053 117.136 66.6124C116.896 66.4196 116.711 66.1415 116.583 65.7781C116.454 65.4147 116.39 64.9843 116.39 64.4867C116.39 63.7265 116.531 63.1325 116.814 62.7049C117.096 62.2772 117.486 62.0634 117.983 62.0634C118.33 62.0634 118.623 62.1347 118.864 62.2772C119.104 62.4198 119.314 62.6559 119.493 62.9858L119.996 62.6923C119.806 62.3121 119.542 62.0173 119.203 61.8076C118.865 61.598 118.458 61.4932 117.983 61.4932C117.519 61.4932 117.118 61.612 116.78 61.8496C116.442 62.0871 116.182 62.4309 116 62.881C115.818 63.331 115.728 63.869 115.728 64.4951C115.728 65.1157 115.821 65.6481 116.009 66.0925C116.196 66.537 116.464 66.878 116.814 67.1156C117.163 67.3531 117.578 67.4719 118.059 67.4719ZM122.578 67.4719C122.953 67.4719 123.287 67.3825 123.58 67.2036C123.874 67.0247 124.103 66.776 124.268 66.4573C124.433 66.1387 124.515 65.7781 124.515 65.3756C124.515 64.9731 124.432 64.6125 124.264 64.2939C124.096 63.9752 123.864 63.7265 123.568 63.5476C123.272 63.3687 122.936 63.2793 122.562 63.2793C122.187 63.2793 121.853 63.3687 121.56 63.5476C121.266 63.7265 121.037 63.9738 120.872 64.2897C120.707 64.6055 120.625 64.9647 120.625 65.3672C120.625 65.7697 120.709 66.1317 120.876 66.4531C121.044 66.7746 121.276 67.0247 121.572 67.2036C121.868 67.3825 122.204 67.4719 122.578 67.4719ZM122.562 66.952C122.299 66.952 122.064 66.885 121.857 66.7508C121.65 66.6166 121.488 66.4294 121.371 66.189C121.254 65.9486 121.195 65.6747 121.195 65.3672C121.195 65.0653 121.254 64.7956 121.371 64.558C121.488 64.3204 121.65 64.1346 121.857 64.0004C122.064 63.8662 122.299 63.7991 122.562 63.7991C122.83 63.7991 123.069 63.8662 123.279 64.0004C123.488 64.1346 123.652 64.3218 123.769 64.5622C123.887 64.8026 123.945 65.0737 123.945 65.3756C123.945 65.6775 123.887 65.9486 123.769 66.189C123.652 66.4294 123.488 66.6166 123.279 66.7508C123.069 66.885 122.83 66.952 122.562 66.952ZM125.891 67.3378V65.3756C125.891 64.8948 125.976 64.5119 126.146 64.2268C126.317 63.9417 126.573 63.7991 126.914 63.7991C127.165 63.7991 127.369 63.89 127.526 64.0717C127.682 64.2534 127.761 64.551 127.761 64.9647V67.3378H128.331V65.124C128.359 64.7159 128.458 64.3931 128.628 64.1555C128.799 63.9179 129.038 63.7991 129.345 63.7991C129.597 63.7991 129.801 63.89 129.958 64.0717C130.114 64.2534 130.192 64.551 130.192 64.9647V67.3378H130.763V64.7132C130.763 64.2659 130.642 63.9151 130.402 63.6608C130.162 63.4064 129.86 63.2793 129.496 63.2793C129.217 63.2793 128.971 63.3575 128.758 63.514C128.546 63.6706 128.378 63.8886 128.255 64.1681C128.171 63.883 128.023 63.6636 127.811 63.5099C127.598 63.3561 127.35 63.2793 127.065 63.2793C126.807 63.2793 126.58 63.3435 126.381 63.4721C126.183 63.6007 126.019 63.7852 125.891 64.0256V63.4134H125.32V67.3378H125.891ZM132.356 69.0148V66.7508C132.518 66.98 132.718 67.1575 132.955 67.2833C133.193 67.409 133.454 67.4719 133.739 67.4719C134.114 67.4719 134.448 67.3825 134.741 67.2036C135.035 67.0247 135.264 66.7774 135.429 66.4615C135.594 66.1457 135.676 65.7865 135.676 65.384C135.676 64.9759 135.593 64.6125 135.425 64.2939C135.257 63.9752 135.025 63.7265 134.729 63.5476C134.433 63.3687 134.097 63.2793 133.723 63.2793C133.443 63.2793 133.186 63.3421 132.951 63.4679C132.716 63.5937 132.518 63.7684 132.356 63.992V63.4134H131.786V69.0148H132.356ZM133.739 66.952C133.471 66.952 133.232 66.885 133.022 66.7508C132.813 66.6166 132.649 66.4294 132.532 66.189C132.414 65.9486 132.356 65.6775 132.356 65.3756C132.356 65.0737 132.414 64.8026 132.532 64.5622C132.649 64.3218 132.813 64.1346 133.022 64.0004C133.232 63.8662 133.471 63.7991 133.739 63.7991C134.002 63.7991 134.237 63.8662 134.444 64.0004C134.651 64.1346 134.813 64.3218 134.93 64.5622C135.047 64.8026 135.106 65.0765 135.106 65.384C135.106 65.6859 135.047 65.9556 134.93 66.1932C134.813 66.4308 134.651 66.6166 134.444 66.7508C134.237 66.885 134.002 66.952 133.739 66.952ZM138.192 67.4719C138.471 67.4719 138.729 67.409 138.963 67.2833C139.198 67.1575 139.397 66.9828 139.559 66.7592V67.3378H140.129V63.4134H139.559V64.0004C139.397 63.7712 139.197 63.5937 138.959 63.4679C138.722 63.3421 138.46 63.2793 138.175 63.2793C137.801 63.2793 137.467 63.3687 137.173 63.5476C136.88 63.7265 136.65 63.9738 136.486 64.2897C136.321 64.6055 136.238 64.9647 136.238 65.3672C136.238 65.7753 136.322 66.1387 136.49 66.4573C136.657 66.776 136.889 67.0247 137.186 67.2036C137.482 67.3825 137.817 67.4719 138.192 67.4719ZM138.175 66.952C137.912 66.952 137.678 66.885 137.471 66.7508C137.264 66.6166 137.102 66.4294 136.984 66.189C136.867 65.9486 136.808 65.6747 136.808 65.3672C136.808 65.0653 136.867 64.7956 136.984 64.558C137.102 64.3204 137.264 64.1346 137.471 64.0004C137.678 63.8662 137.912 63.7991 138.175 63.7991C138.444 63.7991 138.683 63.8662 138.892 64.0004C139.102 64.1346 139.265 64.3218 139.383 64.5622C139.5 64.8026 139.559 65.0737 139.559 65.3756C139.559 65.6775 139.5 65.9486 139.383 66.189C139.265 66.4294 139.102 66.6166 138.892 66.7508C138.683 66.885 138.444 66.952 138.175 66.952ZM141.756 67.3378V65.3756C141.756 64.8948 141.856 64.5119 142.058 64.2268C142.259 63.9417 142.561 63.7991 142.963 63.7991C143.656 63.7991 144.003 64.1877 144.003 64.9647V67.3378H144.573V64.7132C144.573 64.4169 144.505 64.1597 144.368 63.9417C144.231 63.7237 144.046 63.5588 143.814 63.447C143.582 63.3352 143.329 63.2793 143.055 63.2793C142.765 63.2793 142.509 63.3477 142.288 63.4847C142.067 63.6217 141.89 63.8159 141.756 64.0675V63.4134H141.186V67.3378H141.756ZM146.804 69.0148L148.925 63.4134H148.389L147.139 66.6669L145.839 63.4134H145.244L146.854 67.4132L146.234 69.0148H146.804Z" fill="#04091E"/>
<g id="icon">
<path id="Combined-Shape" fill-rule="evenodd" clip-rule="evenodd" d="M42.0317 37.0547V64.2598C39.879 65.5854 37.3163 66.6776 34.4845 67.3943C32.1464 67.9869 29.8488 68.2669 27.7011 68.2669C25.6304 68.2669 23.6992 68.0069 22 67.5141V40.3092C22.0009 40.3092 22.0025 40.3099 22.0034 40.3099C22.6361 40.493 23.3008 40.6442 23.9935 40.7617C24.6345 40.8707 25.2991 40.9507 25.9836 41.0001C26.5435 41.0418 27.1166 41.0627 27.7011 41.0627C29.8497 41.0627 32.1464 40.7819 34.4845 40.1899C37.3163 39.4722 39.879 38.3811 42.0317 37.0547ZM38.051 43.3002C37.8827 43.3574 37.7136 43.4135 37.5436 43.4684L38.051 43.4681L38.051 43.3002Z" fill="#04091E"/>
<path id="Combined-Shape_2" fill-rule="evenodd" clip-rule="evenodd" d="M49.486 31V61.0474C47.083 62.5116 44.2222 63.7178 41.0612 64.5094C38.4513 65.164 35.8864 65.4731 33.489 65.4731C31.1776 65.4731 29.0218 65.186 27.125 64.6417V34.5946C27.126 34.5946 27.1278 34.5953 27.1288 34.5953C27.8351 34.7975 28.577 34.9645 29.3503 35.0943C30.0658 35.2147 30.8077 35.3031 31.5719 35.3576C32.1968 35.4037 32.8366 35.4268 33.489 35.4268C35.8875 35.4268 38.4513 35.1166 41.0612 34.4628C44.2222 33.6701 47.083 32.4649 49.486 31Z" fill="#04091E"/>
</g>
</g>
</g>
</g>
</g>
</g>
</svg>
