<svg width="170" height="100" viewBox="0 0 170 100" fill="none" xmlns="http://www.w3.org/2000/svg">
<g id="Logo 04">
<rect id="Bg Shape" width="170" height="100" fill="white"/>
<g id="Logo">
<g id="&#240;&#159;&#150;&#165;-Landing-Pages">
<g id="Logos">
<g id="Logos-raw">
<g id="Logo-5">
<g id="Dorfus">
<path d="M26 62.8879C27.0149 62.822 27.7464 62.677 28.1945 62.4529C28.9853 62.0444 29.3808 61.2997 29.3808 60.2189V40.2507C29.3808 39.2094 29.0051 38.4845 28.2538 38.0759C27.8189 37.8387 27.0676 37.6739 26 37.5816V36.5536H38.3763C43.3717 36.5536 47.1808 37.8848 49.8037 40.5472C52.1893 42.9724 53.3822 46.2279 53.3822 50.3138C53.3822 53.978 52.1827 57.082 49.7839 59.6258C47.082 62.4859 43.4178 63.916 38.7915 63.916H26V62.8879ZM35.9248 60.1793C35.9643 61.0097 36.1159 61.6094 36.3795 61.9784C36.6563 62.3475 37.2362 62.532 38.1193 62.532C40.5181 62.532 42.4886 61.6885 44.0307 60.0014C45.5728 58.3011 46.3439 55.0456 46.3439 50.2348C46.3439 47.3746 45.9287 44.9165 45.0983 42.8604C43.7539 39.5521 41.4869 37.898 38.2973 37.898C37.2428 37.898 36.5575 38.122 36.2411 38.5702C36.0302 38.8601 35.9248 39.4203 35.9248 40.2507V60.1793Z" fill="#04091E"/>
<path d="M55.5965 54.6436C55.5965 51.823 56.4598 49.4703 58.1864 47.5855C59.9262 45.7007 62.1075 44.7583 64.7304 44.7583C67.406 44.7583 69.594 45.7205 71.2942 47.6448C73.0077 49.5692 73.8644 51.9021 73.8644 54.6436C73.8644 57.3456 73.0209 59.6719 71.3338 61.6226C69.6467 63.5601 67.4456 64.5288 64.7304 64.5288C62.0944 64.5288 59.913 63.5865 58.1864 61.7017C56.4598 59.8037 55.5965 57.451 55.5965 54.6436ZM61.5474 54.6436C61.5474 57.4774 61.6924 59.461 61.9823 60.5945C62.4436 62.3475 63.3597 63.224 64.7304 63.224C66.0353 63.224 66.892 62.5518 67.3006 61.2074C67.7092 59.863 67.9135 57.6751 67.9135 54.6436C67.9135 51.6253 67.696 49.4439 67.2611 48.0996C66.8393 46.742 66.0023 46.0632 64.7502 46.0632C63.3794 46.0632 62.4634 46.9397 62.0021 48.6927C61.6989 49.8657 61.5474 51.8494 61.5474 54.6436Z" fill="#04091E"/>
<path d="M75.6833 62.9472C76.4609 62.8549 77.0013 62.6704 77.3045 62.3936C77.6076 62.1168 77.7724 61.583 77.7987 60.7922L77.8383 59.606V48.5938C77.8383 47.7503 77.6933 47.1769 77.4033 46.8738C77.1134 46.5706 76.54 46.3663 75.6833 46.2609V45.2724H83.374V48.4554C84.2307 47.3351 85.0809 46.4454 85.9244 45.7864C86.768 45.1274 87.7433 44.7979 88.8504 44.7979C89.6808 44.7979 90.4255 45.0681 91.0845 45.6085C91.7567 46.1357 92.0928 46.9133 92.0928 47.9414C92.0928 48.7322 91.8556 49.3846 91.3811 49.8987C90.9198 50.4127 90.3135 50.6697 89.5622 50.6697C88.7055 50.6697 87.9608 50.2677 87.3281 49.4637C86.7086 48.6597 86.2737 48.2577 86.0233 48.2577C85.4829 48.2577 84.9359 48.5938 84.3823 49.266C83.8419 49.925 83.5717 50.874 83.5717 52.113V59.7642C83.5717 61.1085 83.7628 61.9521 84.1451 62.2948C84.5405 62.6243 85.3181 62.8418 86.478 62.9472V63.916H75.6833V62.9472Z" fill="#04091E"/>
<path d="M93.4965 62.9472C94.3269 62.8813 94.92 62.6968 95.2759 62.3936C95.6449 62.0905 95.8294 61.4578 95.8294 60.4957V47.3285H93.4965V45.5492H95.8294V44.0466C95.8294 42.1618 96.126 40.6131 96.7191 39.4005C97.8394 37.1335 99.9087 36 102.927 36C104.535 36 105.893 36.369 107 37.1071C108.12 37.8321 108.68 38.7942 108.68 39.9936C108.68 40.7449 108.443 41.3512 107.969 41.8125C107.507 42.2738 106.888 42.5045 106.11 42.5045C105.464 42.5045 104.911 42.2936 104.449 41.8718C103.988 41.4501 103.757 40.9426 103.757 40.3495C103.757 39.9014 103.902 39.4335 104.192 38.9458C104.496 38.445 104.647 38.1418 104.647 38.0364C104.647 37.7069 104.528 37.496 104.291 37.4037C104.054 37.3114 103.797 37.2653 103.52 37.2653C102.861 37.2653 102.354 37.4564 101.998 37.8387C101.642 38.2209 101.464 39.0447 101.464 40.31V45.5492H104.983V47.3285H101.464V59.7642C101.464 61.1613 101.662 62.018 102.057 62.3343C102.466 62.6506 103.362 62.8549 104.746 62.9472V63.916H93.4965V62.9472Z" fill="#04091E"/>
<path d="M114.71 45.2724V59.0129C114.71 59.8301 114.809 60.4298 115.007 60.812C115.35 61.4842 116.028 61.8203 117.043 61.8203C117.689 61.8203 118.322 61.616 118.941 61.2074C119.297 60.9833 119.745 60.6077 120.286 60.0805V48.5938C120.286 47.7503 120.114 47.1637 119.772 46.8342C119.442 46.4916 118.77 46.3004 117.755 46.2609V45.2724H125.821V59.8432C125.821 60.6868 125.979 61.2733 126.296 61.6028C126.612 61.9191 127.232 62.1168 128.154 62.1959V63.1251C125.65 63.3624 124.068 63.5403 123.409 63.6589C122.763 63.7644 121.722 64.0412 120.286 64.4893V61.8203C119.323 62.6506 118.526 63.2372 117.893 63.5799C116.786 64.1862 115.633 64.4893 114.433 64.4893C113.129 64.4893 111.909 64.0741 110.776 63.2438C109.656 62.4134 109.095 60.9372 109.095 58.8152V48.5938C109.095 47.7371 108.957 47.1769 108.68 46.9133C108.403 46.6497 107.87 46.4322 107.079 46.2609V45.2724H114.71Z" fill="#04091E"/>
<path d="M129.993 57.7871H131.12C131.515 59.7246 132.253 61.0954 133.334 61.8994C134.415 62.6902 135.522 63.0856 136.656 63.0856C137.697 63.0856 138.461 62.8549 138.949 62.3936C139.437 61.9191 139.68 61.2997 139.68 60.5352C139.68 59.8103 139.417 59.1908 138.89 58.6768C138.6 58.4 138.132 58.1034 137.486 57.7871L134.481 56.3241C132.899 55.5464 131.766 54.7029 131.08 53.7935C130.382 52.884 130.032 51.8098 130.032 50.5709C130.032 49.0024 130.579 47.6514 131.673 46.5179C132.767 45.3712 134.296 44.7979 136.26 44.7979C137.117 44.7979 138.026 44.9429 138.988 45.2328C139.951 45.5096 140.55 45.648 140.788 45.648C141.117 45.648 141.348 45.5821 141.48 45.4503C141.625 45.3053 141.743 45.1076 141.835 44.8572H142.725V50.7093H141.697C141.315 49.3385 140.689 48.2379 139.819 47.4076C138.949 46.5772 137.934 46.162 136.774 46.162C135.878 46.162 135.206 46.4125 134.758 46.9133C134.323 47.4142 134.105 47.9546 134.105 48.5345C134.105 49.009 134.303 49.4835 134.698 49.958C135.08 50.4457 135.805 50.9465 136.873 51.4605L139.087 52.5281C140.458 53.1872 141.46 53.8264 142.092 54.4459C143.147 55.5003 143.674 56.7986 143.674 58.3407C143.674 59.8432 143.127 61.2469 142.033 62.5518C140.952 63.8435 139.325 64.4893 137.15 64.4893C136.609 64.4893 136.062 64.43 135.509 64.3114C134.968 64.2059 134.296 64.0148 133.492 63.738L132.8 63.5008C132.55 63.4085 132.392 63.3558 132.326 63.3426C132.273 63.3294 132.201 63.3228 132.108 63.3228C131.884 63.3228 131.687 63.4151 131.515 63.5996C131.357 63.771 131.173 64.0675 130.962 64.4893H129.993V57.7871Z" fill="#04091E"/>
</g>
</g>
</g>
</g>
</g>
</g>
</g>
</svg>
