<svg width="170" height="100" viewBox="0 0 170 100" fill="none" xmlns="http://www.w3.org/2000/svg">
<g id="Logo 01">
<rect id="Bg Shape" width="170" height="100" fill="white"/>
<g id="Logo">
<g id="Page-1">
<g id="5">
<g id="6">
<path id="Martino" d="M59.8051 54.4943V42.3205C59.8051 41.6078 59.7481 40.149 59.6341 37.9442L61.1594 43.2899L64.7802 54.4943H67.7737L71.3945 43.2899C71.4483 43.122 71.5071 42.9326 71.5707 42.7217L71.6494 42.4582C71.96 41.4088 72.374 39.9041 72.8913 37.9442C72.8057 40.035 72.7606 41.2181 72.7559 41.4937C72.7511 41.7693 72.7487 42.0449 72.7487 42.3205V54.4943H76.4836V34.409H70.8813L67.1893 46.1979L66.2912 49.4195L65.6069 46.7253L65.2933 45.642L61.7011 34.409H56.0703V54.4943H59.8051ZM84.0135 54.7794C86.2753 54.7794 87.9669 53.7673 89.0883 51.7431H89.1738C89.2688 52.703 89.5563 53.43 90.0362 53.9241C90.5162 54.4183 91.2598 54.6654 92.2671 54.6654C92.5522 54.6654 92.8017 54.6559 93.0155 54.6369C93.2294 54.6179 93.4313 54.5941 93.6214 54.5656C93.8114 54.5371 94.0015 54.4991 94.1916 54.4516C94.3816 54.4041 94.5955 54.3518 94.8331 54.2948V52.128C94.548 52.185 94.2534 52.2135 93.9492 52.2135C93.4931 52.2135 93.1676 52.0496 92.9728 51.7217C92.778 51.3939 92.6805 50.7975 92.6805 49.9327V44.3162C92.6805 42.5486 92.1531 41.1849 91.0982 40.225C90.0434 39.2652 88.5418 38.7853 86.5936 38.7853C84.6645 38.7853 83.1415 39.1725 82.0249 39.9471C80.9082 40.7216 80.2216 41.8596 79.965 43.3611L84.1418 43.5607C84.2273 42.7814 84.4435 42.2231 84.7904 41.8857C85.1372 41.5484 85.6813 41.3797 86.4226 41.3797C87.2209 41.3797 87.7958 41.6244 88.1474 42.1138C88.4991 42.6033 88.6749 43.3516 88.6749 44.359V45.143L85.3534 45.2001C83.3767 45.2191 81.8681 45.6467 80.8275 46.483C79.7868 47.3193 79.2665 48.5357 79.2665 50.1323C79.2665 51.6053 79.6847 52.7481 80.521 53.5606C81.3573 54.3732 82.5214 54.7794 84.0135 54.7794ZM85.2964 51.9855C84.7357 51.9855 84.2867 51.8073 83.9493 51.4509C83.612 51.0945 83.4433 50.5504 83.4433 49.8187C83.4433 49.2485 83.5454 48.7923 83.7498 48.4502C83.9541 48.1081 84.2511 47.8539 84.6407 47.6876C85.0303 47.5212 85.6908 47.4191 86.6221 47.3811L88.6749 47.3526V48.1366C88.6749 48.8113 88.5276 49.4504 88.233 50.0539C87.9384 50.6574 87.5321 51.1302 87.0142 51.4723C86.4962 51.8144 85.9236 51.9855 85.2964 51.9855ZM100.667 54.4943V46.9249C100.667 45.3378 100.945 44.1404 101.501 43.3326C102.056 42.5249 102.833 42.121 103.831 42.121C104.325 42.121 104.896 42.1922 105.542 42.3348V38.9848C105.228 38.8423 104.815 38.771 104.302 38.771C103.674 38.771 103.152 38.8779 102.734 39.0918C102.315 39.3056 101.954 39.6335 101.65 40.0754C101.346 40.5173 100.999 41.2799 100.61 42.3633H100.553C100.553 42.0782 100.529 41.5009 100.481 40.6313C100.434 39.7617 100.396 39.2414 100.367 39.0704H96.5469C96.5754 39.5075 96.6016 40.0088 96.6253 40.5743C96.6491 41.1397 96.661 41.8454 96.661 42.6912V54.4943H100.667ZM111.946 54.7509C113.21 54.7509 114.336 54.5894 115.324 54.2663V51.7859C114.744 51.9189 114.298 51.9855 113.984 51.9855C113.385 51.9855 112.943 51.8073 112.658 51.4509C112.373 51.0945 112.231 50.5409 112.231 49.7902V41.7788H115.153V39.0704H112.231V35.4496H109.722L108.467 39.0704H106.315V41.7788H108.268V50.8736C108.268 52.1755 108.586 53.1472 109.223 53.7887C109.86 54.4302 110.767 54.7509 111.946 54.7509ZM121.699 36.2906V33.3398H117.694V36.2906H121.699ZM121.699 54.4943V39.0704H117.694V54.4943H121.699ZM129.785 54.4943V46.2264C129.785 44.9245 130.082 43.8577 130.676 43.0262C131.27 42.1946 132.052 41.7788 133.021 41.7788C134.855 41.7788 135.772 43.1331 135.772 45.8415V54.4943H139.764V44.7011C139.764 42.7624 139.327 41.2894 138.452 40.2821C137.578 39.2747 136.324 38.771 134.689 38.771C133.558 38.771 132.584 39.0371 131.767 39.5693C130.949 40.1015 130.27 40.9568 129.728 42.1352H129.671C129.671 41.8406 129.647 41.3013 129.6 40.5173C129.552 39.7332 129.514 39.2509 129.486 39.0704H125.665C125.694 39.4885 125.72 39.9613 125.744 40.4888C125.768 41.0162 125.78 41.6933 125.78 42.5201V54.4943H129.785ZM150.401 54.7794C152.853 54.7794 154.773 54.0691 156.16 52.6483C157.548 51.2276 158.242 49.2675 158.242 46.7681C158.242 44.1927 157.579 42.2184 156.253 40.8451C154.927 39.4719 153.005 38.7853 150.487 38.7853C148.025 38.7853 146.11 39.4957 144.742 40.9164C143.374 42.3372 142.689 44.2877 142.689 46.7681C142.689 49.258 143.374 51.2157 144.742 52.6412C146.11 54.0667 147.997 54.7794 150.401 54.7794ZM150.358 52.0425C149.237 52.0425 148.379 51.5934 147.785 50.6954C147.191 49.7973 146.895 48.4882 146.895 46.7681C146.895 43.2804 148.111 41.5365 150.544 41.5365C151.684 41.5365 152.554 41.9499 153.152 42.7767C153.751 43.6035 154.051 44.934 154.051 46.7681C154.051 50.2844 152.82 52.0425 150.358 52.0425Z" fill="#04091E"/>
<path id="Colorsofyourlife" opacity="0.595853" d="M95.7771 67.0723C96.0813 67.0723 96.3629 67.0237 96.6222 66.9265C96.8814 66.8293 97.0995 66.6997 97.2765 66.5376C97.4535 66.3756 97.6005 66.2111 97.7177 66.0441C97.8349 65.8771 97.9308 65.7038 98.0056 65.5243L97.1232 65.2477C97.0135 65.5219 96.8378 65.7537 96.596 65.9431C96.3542 66.1326 96.0763 66.2273 95.7622 66.2273C95.2786 66.2273 94.8922 66.0254 94.6031 65.6216C94.3139 65.2177 94.1694 64.6694 94.1694 63.9764C94.1694 63.2934 94.3127 62.7487 94.5993 62.3424C94.886 61.9361 95.2736 61.733 95.7622 61.733C96.2757 61.733 96.692 62.0196 97.011 62.5929L97.856 62.3163C97.6816 61.9124 97.4161 61.5734 97.0596 61.2992C96.7032 61.025 96.2757 60.8879 95.7771 60.8879C95.0044 60.8879 94.3738 61.1659 93.8852 61.7218C93.3966 62.2776 93.1523 63.0292 93.1523 63.9764C93.1523 64.9386 93.4004 65.6951 93.8964 66.246C94.3925 66.7969 95.0194 67.0723 95.7771 67.0723ZM100.436 67.0723C100.735 67.0723 101.003 67.0225 101.24 66.9227C101.477 66.823 101.667 66.6947 101.812 66.5376C101.957 66.3806 102.076 66.1986 102.171 65.9917C102.266 65.7848 102.332 65.5817 102.369 65.3823C102.406 65.1829 102.425 64.9834 102.425 64.784C102.425 64.1409 102.256 63.5975 101.917 63.1538C101.578 62.7101 101.084 62.4883 100.436 62.4883C99.7829 62.4883 99.2868 62.7101 98.9478 63.1538C98.6088 63.5975 98.4393 64.1409 98.4393 64.784C98.4393 64.9934 98.458 65.1991 98.4954 65.401C98.5328 65.6029 98.6001 65.8073 98.6973 66.0142C98.7945 66.2211 98.9167 66.4005 99.0638 66.5526C99.2108 66.7046 99.4028 66.8293 99.6396 66.9265C99.8764 67.0237 100.142 67.0723 100.436 67.0723ZM100.436 66.2647C100.162 66.2647 99.9225 66.1425 99.7181 65.8983C99.5137 65.654 99.4115 65.2826 99.4115 64.784C99.4115 64.2755 99.5149 63.9004 99.7218 63.6586C99.9287 63.4168 100.167 63.2959 100.436 63.2959C100.705 63.2959 100.942 63.4168 101.146 63.6586C101.351 63.9004 101.453 64.2755 101.453 64.784C101.453 65.2826 101.351 65.654 101.146 65.8983C100.942 66.1425 100.705 66.2647 100.436 66.2647ZM104.227 66.9377V60.8281H103.285V66.9377H104.227ZM107.084 67.0723C107.383 67.0723 107.651 67.0225 107.888 66.9227C108.125 66.823 108.315 66.6947 108.46 66.5376C108.605 66.3806 108.724 66.1986 108.819 65.9917C108.914 65.7848 108.98 65.5817 109.017 65.3823C109.054 65.1829 109.073 64.9834 109.073 64.784C109.073 64.1409 108.904 63.5975 108.565 63.1538C108.226 62.7101 107.732 62.4883 107.084 62.4883C106.431 62.4883 105.935 62.7101 105.596 63.1538C105.257 63.5975 105.087 64.1409 105.087 64.784C105.087 64.9934 105.106 65.1991 105.143 65.401C105.181 65.6029 105.248 65.8073 105.345 66.0142C105.443 66.2211 105.565 66.4005 105.712 66.5526C105.859 66.7046 106.051 66.8293 106.288 66.9265C106.524 67.0237 106.79 67.0723 107.084 67.0723ZM107.084 66.2647C106.81 66.2647 106.57 66.1425 106.366 65.8983C106.162 65.654 106.059 65.2826 106.059 64.784C106.059 64.2755 106.163 63.9004 106.37 63.6586C106.577 63.4168 106.815 63.2959 107.084 63.2959C107.353 63.2959 107.59 63.4168 107.794 63.6586C107.999 63.9004 108.101 64.2755 108.101 64.784C108.101 65.2826 107.999 65.654 107.794 65.8983C107.59 66.1425 107.353 66.2647 107.084 66.2647ZM110.801 66.9377V64.7392C110.801 64.3204 110.887 63.9851 111.059 63.7334C111.231 63.4816 111.479 63.3557 111.803 63.3557C111.987 63.3557 112.174 63.3856 112.363 63.4454V62.5855C112.219 62.5207 112.032 62.4883 111.803 62.4883C111.558 62.4883 111.348 62.5481 111.171 62.6677C110.994 62.7874 110.858 62.927 110.763 63.0865V62.6229H109.851V66.9377H110.801ZM114.405 67.0723C114.948 67.0723 115.368 66.9489 115.665 66.7021C115.962 66.4554 116.11 66.155 116.11 65.801C116.11 65.2277 115.666 64.799 114.779 64.5148C114.754 64.5048 114.714 64.4924 114.659 64.4774C114.45 64.4076 114.288 64.3503 114.173 64.3054C114.059 64.2606 113.948 64.1895 113.84 64.0923C113.733 63.9951 113.68 63.8842 113.68 63.7595C113.68 63.61 113.741 63.4891 113.863 63.3968C113.985 63.3046 114.161 63.2585 114.39 63.2585C114.809 63.2585 115.165 63.4604 115.459 63.8642L116.088 63.4828C115.933 63.1937 115.699 62.9556 115.385 62.7687C115.071 62.5817 114.737 62.4883 114.383 62.4883C113.909 62.4883 113.513 62.6029 113.194 62.8322C112.874 63.0616 112.715 63.3657 112.715 63.7446C112.715 63.939 112.75 64.1097 112.82 64.2568C112.889 64.4039 112.992 64.526 113.126 64.6232C113.261 64.7205 113.389 64.7977 113.511 64.8551C113.634 64.9124 113.784 64.971 113.964 65.0308C113.984 65.0358 114.016 65.0458 114.061 65.0607C114.31 65.1405 114.497 65.204 114.622 65.2514C114.746 65.2988 114.865 65.3698 114.977 65.4645C115.089 65.5592 115.145 65.6689 115.145 65.7936C115.145 65.9481 115.077 66.0715 114.94 66.1637C114.803 66.256 114.617 66.3021 114.383 66.3021C113.904 66.3021 113.515 66.0827 113.216 65.644L112.535 66.0403C112.71 66.3594 112.96 66.6112 113.287 66.7956C113.614 66.9801 113.986 67.0723 114.405 67.0723ZM120.47 67.0723C120.769 67.0723 121.037 67.0225 121.274 66.9227C121.51 66.823 121.701 66.6947 121.846 66.5376C121.99 66.3806 122.11 66.1986 122.205 65.9917C122.299 65.7848 122.365 65.5817 122.403 65.3823C122.44 65.1829 122.459 64.9834 122.459 64.784C122.459 64.1409 122.289 63.5975 121.95 63.1538C121.611 62.7101 121.118 62.4883 120.47 62.4883C119.817 62.4883 119.321 62.7101 118.982 63.1538C118.643 63.5975 118.473 64.1409 118.473 64.784C118.473 64.9934 118.492 65.1991 118.529 65.401C118.567 65.6029 118.634 65.8073 118.731 66.0142C118.828 66.2211 118.95 66.4005 119.097 66.5526C119.245 66.7046 119.436 66.8293 119.673 66.9265C119.91 67.0237 120.176 67.0723 120.47 67.0723ZM120.47 66.2647C120.196 66.2647 119.956 66.1425 119.752 65.8983C119.547 65.654 119.445 65.2826 119.445 64.784C119.445 64.2755 119.549 63.9004 119.756 63.6586C119.962 63.4168 120.2 63.2959 120.47 63.2959C120.739 63.2959 120.976 63.4168 121.18 63.6586C121.385 63.9004 121.487 64.2755 121.487 64.784C121.487 65.2826 121.385 65.654 121.18 65.8983C120.976 66.1425 120.739 66.2647 120.47 66.2647ZM124.515 66.9377V63.4305H125.413V62.6229H124.515V62.2265C124.515 62.0171 124.551 61.8651 124.624 61.7704C124.696 61.6756 124.809 61.6283 124.964 61.6283H125.51V60.8281H124.829C124.426 60.8281 124.113 60.939 123.891 61.1609C123.669 61.3827 123.558 61.7155 123.558 62.1592V62.6229H122.9V63.4305H123.558V66.9377H124.515ZM128.172 68.7025C128.546 68.7025 128.859 68.6128 129.111 68.4333C129.362 68.2538 129.568 67.9447 129.728 67.506L131.515 62.6229H130.483L129.802 64.8438C129.643 65.4172 129.551 65.7487 129.526 65.8384H129.496C129.431 65.5842 129.336 65.2526 129.212 64.8438L128.471 62.6229H127.432L129.047 66.833L128.905 67.2593C128.82 67.4986 128.707 67.6668 128.565 67.764C128.423 67.8612 128.239 67.9099 128.015 67.9099H127.88V68.7025H128.172ZM133.833 67.0723C134.132 67.0723 134.4 67.0225 134.637 66.9227C134.874 66.823 135.064 66.6947 135.209 66.5376C135.354 66.3806 135.473 66.1986 135.568 65.9917C135.663 65.7848 135.729 65.5817 135.766 65.3823C135.803 65.1829 135.822 64.9834 135.822 64.784C135.822 64.1409 135.653 63.5975 135.314 63.1538C134.975 62.7101 134.481 62.4883 133.833 62.4883C133.18 62.4883 132.684 62.7101 132.345 63.1538C132.006 63.5975 131.836 64.1409 131.836 64.784C131.836 64.9934 131.855 65.1991 131.892 65.401C131.93 65.6029 131.997 65.8073 132.094 66.0142C132.192 66.2211 132.314 66.4005 132.461 66.5526C132.608 66.7046 132.8 66.8293 133.037 66.9265C133.273 67.0237 133.539 67.0723 133.833 67.0723ZM133.833 66.2647C133.559 66.2647 133.32 66.1425 133.115 65.8983C132.911 65.654 132.809 65.2826 132.809 64.784C132.809 64.2755 132.912 63.9004 133.119 63.6586C133.326 63.4168 133.564 63.2959 133.833 63.2959C134.102 63.2959 134.339 63.4168 134.543 63.6586C134.748 63.9004 134.85 64.2755 134.85 64.784C134.85 65.2826 134.748 65.654 134.543 65.8983C134.339 66.1425 134.102 66.2647 133.833 66.2647ZM137.998 67.0723C138.292 67.0723 138.538 67.005 138.735 66.8704C138.932 66.7358 139.065 66.5912 139.135 66.4367H139.142V66.9377H140.055V62.6229H139.113V65.0383C139.113 65.3723 139.033 65.6602 138.873 65.902C138.714 66.1438 138.492 66.2647 138.208 66.2647C137.734 66.2647 137.497 65.9282 137.497 65.2551V62.6229H136.548V65.3748C136.548 65.6988 136.592 65.978 136.682 66.2123C136.772 66.4466 136.892 66.6224 137.041 66.7395C137.191 66.8567 137.344 66.9414 137.501 66.9938C137.658 67.0461 137.824 67.0723 137.998 67.0723ZM142.036 66.9377V64.7392C142.036 64.3204 142.122 63.9851 142.294 63.7334C142.466 63.4816 142.714 63.3557 143.038 63.3557C143.223 63.3557 143.41 63.3856 143.599 63.4454V62.5855C143.455 62.5207 143.268 62.4883 143.038 62.4883C142.794 62.4883 142.584 62.5481 142.407 62.6677C142.23 62.7874 142.094 62.927 141.999 63.0865V62.6229H141.087V66.9377H142.036ZM146.987 66.9377V60.8281H146.045V66.9377H146.987ZM149.163 61.9797V60.9403H148.146V61.9797H149.163ZM149.126 66.9377V62.6229H148.191V66.9377H149.126ZM151.526 66.9377V63.4305H152.423V62.6229H151.526V62.2265C151.526 62.0171 151.562 61.8651 151.635 61.7704C151.707 61.6756 151.82 61.6283 151.975 61.6283H152.521V60.8281H151.84C151.436 60.8281 151.124 60.939 150.902 61.1609C150.68 61.3827 150.569 61.7155 150.569 62.1592V62.6229H149.911V63.4305H150.569V66.9377H151.526ZM154.839 67.0723C155.308 67.0723 155.699 66.9651 156.013 66.7508C156.327 66.5364 156.554 66.2697 156.693 65.9506L155.901 65.6814C155.806 65.8658 155.668 66.0167 155.486 66.1338C155.304 66.251 155.093 66.3095 154.854 66.3095C154.51 66.3095 154.239 66.1911 154.042 65.9543C153.846 65.7175 153.747 65.4346 153.747 65.1056H156.738C156.753 64.9809 156.761 64.8538 156.761 64.7242C156.761 64.0611 156.576 63.5227 156.207 63.1089C155.838 62.6951 155.37 62.4883 154.801 62.4883C154.223 62.4883 153.743 62.6939 153.362 63.1052C152.981 63.5165 152.79 64.0686 152.79 64.7616C152.79 65.4645 152.981 66.0254 153.362 66.4442C153.743 66.8629 154.236 67.0723 154.839 67.0723ZM155.796 64.44H153.762C153.767 64.121 153.863 63.843 154.05 63.6062C154.237 63.3694 154.487 63.251 154.801 63.251C155.116 63.251 155.36 63.3669 155.534 63.5987C155.709 63.8306 155.796 64.111 155.796 64.44Z" fill="#04091E"/>
<g id="floors">
<path id="Path" d="M20.6147 36.831L20.6147 66.6135C20.6146 66.8985 20.4678 67.1622 20.2288 67.3067C19.9898 67.4513 19.6943 67.4552 19.4517 67.317L12.4033 63.2923C12.1545 63.1505 12.0001 62.8812 12 62.5888L12 32.8064C12.0001 32.5214 12.1469 32.2577 12.3859 32.1131C12.6249 31.9685 12.9205 31.9646 13.163 32.1029L20.2114 36.1275C20.4602 36.2693 20.6146 36.5386 20.6147 36.831Z" fill="#04091E"/>
<path id="Path_2" d="M32.0991 36.831V66.6135C32.099 66.8985 31.9522 67.1622 31.7132 67.3067C31.4742 67.4513 31.1786 67.4552 30.9361 67.317L23.8877 63.2923C23.6389 63.1505 23.4845 62.8812 23.4844 62.5888L23.4844 32.8064C23.4845 32.5214 23.6313 32.2577 23.8703 32.1131C24.1093 31.9685 24.4048 31.9646 24.6474 32.1029L31.6958 36.1275C31.9446 36.2693 32.099 36.5386 32.0991 36.831Z" fill="#04091E"/>
<path id="Path_3" d="M43.5835 36.831V66.6135C43.5833 66.8985 43.4366 67.1622 43.1976 67.3067C42.9586 67.4513 42.663 67.4552 42.4205 67.317L35.3721 63.2923C35.1233 63.1505 34.9689 62.8812 34.9688 62.5888L34.9688 32.8064C34.9689 32.5214 35.1157 32.2577 35.3547 32.1131C35.5937 31.9685 35.8892 31.9646 36.1317 32.1029L43.1802 36.1275C43.4289 36.2693 43.5833 36.5386 43.5835 36.831Z" fill="#04091E"/>
</g>
</g>
</g>
</g>
</g>
</g>
</svg>
