<svg width="170" height="100" viewBox="0 0 170 100" fill="none" xmlns="http://www.w3.org/2000/svg">
<g id="Logo 02">
<rect id="Bg Shape" width="170" height="100" fill="white"/>
<g id="Logo">
<g id="Page-1">
<g id="2">
<g id="9">
<path id="square" d="M62.1091 55.7477C66.4765 55.7477 69.3764 53.7212 69.3764 50.2273C69.3764 46.7209 66.4949 45.6235 63.7287 44.7982L63.4102 44.7041C60.9749 43.9897 58.72 43.424 58.72 41.5275C58.72 40.0251 59.9429 39.0818 62.0742 39.0818C63.9259 39.0818 65.2536 39.8505 65.8476 41.4926L68.6776 40.3745C67.874 37.9288 65.4632 36.5662 62.1091 36.5662C58.0562 36.5662 55.4358 38.5228 55.4358 41.7022C55.4358 48.0262 66.0223 46.0347 66.0223 50.4719C66.0223 52.1839 64.5199 53.1622 62.2139 53.1622C59.6634 53.1622 57.9514 52.0442 57.3574 50.1575L54.5273 51.2755C55.5056 54.2104 58.3008 55.7477 62.1091 55.7477ZM89.3149 61.6175V36.9505H86.5548V40.3745C85.0873 37.9987 82.6416 36.5662 79.567 36.5662C74.3261 36.5662 70.5876 40.689 70.5876 46.1744C70.5876 51.6598 74.4309 55.7477 79.6368 55.7477C82.5368 55.7477 84.8777 54.455 86.3451 52.3237V61.6175H89.3149ZM79.9862 53.1273C76.2827 53.1273 73.5225 50.1575 73.5225 46.1744C73.5225 42.1564 76.2827 39.1866 79.9862 39.1866C83.7946 39.1866 86.4499 42.0866 86.4499 46.1744C86.4499 50.2623 83.8295 53.1273 79.9862 53.1273ZM100.204 55.7477C102.929 55.7477 105.131 54.455 106.354 52.7429V55.3634H109.184V36.9505H106.214V48.5153C106.179 50.8562 104.082 53.0923 100.973 53.0923C97.8284 53.1273 95.8369 51.0659 95.8369 47.9563V36.9505H92.8671V48.3057C92.8671 52.6731 95.4875 55.7477 100.204 55.7477ZM120.876 55.7477C123.986 55.7477 126.397 54.2803 127.794 51.8345V55.3634H130.555V36.9505H127.794V40.5143C126.397 38.1384 123.986 36.7409 120.876 36.7409C115.671 36.7409 111.827 40.689 111.827 46.1395C111.827 51.6598 115.636 55.7477 120.876 55.7477ZM121.226 53.1273C117.522 53.1273 114.762 50.1575 114.762 46.1395C114.762 42.1914 117.522 39.1866 121.226 39.1866C125.069 39.1866 127.69 42.0516 127.69 46.1395C127.69 50.2623 125.034 53.1273 121.226 53.1273ZM137.321 55.3634V44.2528C137.321 41.6323 139.662 39.3613 143.016 39.3264V36.5662C140.431 36.5662 138.334 37.9288 137.146 39.6408V36.9505H134.351V55.3634H137.321ZM152.263 55.7826C156.631 55.7826 159.181 53.8959 160.544 51.2755L157.958 49.7033C157.05 51.8345 155.373 52.9875 152.368 52.9875C148.979 52.9875 146.289 50.6815 145.765 47.2575H161.068C161.103 46.9081 161.138 46.2792 161.138 45.7551C161.138 40.8986 157.609 36.5312 152.054 36.5312C146.848 36.5312 142.76 40.8287 142.76 46.1744C142.76 51.6598 146.603 55.7826 152.263 55.7826ZM158.098 44.672H145.8C146.359 41.1781 149.049 39.1167 152.159 39.1167C155.233 39.1167 157.644 41.2131 158.098 44.672Z" fill="#04091E"/>
<path id="RealEstateSolution" d="M97.2334 66.6069C97.329 66.6069 97.43 66.6007 97.5364 66.5885C97.6429 66.5762 97.7589 66.5578 97.8844 66.5332V66.2138H97.8107C97.4641 66.2138 97.2171 66.1722 97.0697 66.0889C96.9223 66.0057 96.8062 65.8494 96.7216 65.6201C96.6834 65.5246 96.6315 65.3315 96.566 65.0408C96.5005 64.7501 96.4214 64.5297 96.3286 64.3795C96.2467 64.243 96.1348 64.1291 95.9928 64.0376C95.8509 63.9462 95.6748 63.8718 95.4646 63.8145C95.915 63.7162 96.2535 63.5504 96.4801 63.317C96.7066 63.0836 96.8199 62.7854 96.8199 62.4224C96.8199 61.912 96.6548 61.5332 96.3245 61.2862C95.9942 61.0392 95.4865 60.9157 94.8013 60.9157H92.6641V61.2514L93.139 61.3005L93.2823 61.4193V66.0378L93.139 66.1565L92.6641 66.1974V66.5414H94.658V66.1974L94.179 66.1565L94.0357 66.0378V64.0438L94.0644 64.0397C94.2445 64.0315 94.3755 64.0274 94.4574 64.0274C94.8423 64.0274 95.1296 64.0929 95.3193 64.2239C95.509 64.355 95.6598 64.5911 95.7717 64.9323C95.8017 65.0223 95.8413 65.1588 95.8905 65.3417C96.0215 65.8494 96.1866 66.1906 96.3859 66.3653C96.4814 66.4472 96.5981 66.5079 96.736 66.5475C96.8738 66.5871 97.0396 66.6069 97.2334 66.6069ZM94.4984 63.6466C94.4274 63.6466 94.3537 63.6459 94.2773 63.6446C94.2008 63.6432 94.1203 63.6412 94.0357 63.6384V61.3005H94.441C94.9842 61.3005 95.3773 61.3947 95.6202 61.583C95.8632 61.7714 95.9846 62.0744 95.9846 62.492C95.9846 62.896 95.8666 63.1894 95.6305 63.3723C95.3944 63.5552 95.017 63.6466 94.4984 63.6466ZM99.4024 66.6151C99.6726 66.6151 99.9415 66.5728 100.209 66.4881C100.476 66.4035 100.734 66.2793 100.983 66.1156V65.6529C100.732 65.8194 100.499 65.9422 100.285 66.0214C100.07 66.1005 99.8637 66.1401 99.6644 66.1401C99.2331 66.1401 98.8906 65.9866 98.6367 65.6795C98.3829 65.3724 98.2559 64.9555 98.2559 64.4287V64.3345H100.971C100.976 64.3017 100.979 64.2676 100.981 64.2321C100.982 64.1966 100.983 64.1448 100.983 64.0765C100.983 63.5661 100.847 63.1628 100.575 62.8666C100.304 62.5705 99.936 62.4224 99.472 62.4224C98.9042 62.4224 98.4395 62.621 98.0778 63.0181C97.7162 63.4153 97.5353 63.9278 97.5353 64.5556C97.5353 65.167 97.708 65.6631 98.0533 66.0439C98.3986 66.4247 98.8483 66.6151 99.4024 66.6151ZM100.234 63.9824H98.2969C98.3214 63.6412 98.4354 63.3593 98.6388 63.1369C98.8421 62.9144 99.083 62.8032 99.3614 62.8032C99.6453 62.8032 99.8616 62.8933 100.01 63.0734C100.159 63.2536 100.234 63.5129 100.234 63.8513V63.9824ZM102.488 66.5987C102.685 66.5987 102.896 66.5543 103.121 66.4656C103.346 66.3769 103.594 66.2398 103.864 66.0541L103.975 66.5414H105.154V66.2384L104.712 66.1974L104.568 66.0623V63.6302C104.568 63.2072 104.469 62.9001 104.27 62.709C104.07 62.5179 103.751 62.4224 103.311 62.4224C102.812 62.4224 102.405 62.5125 102.089 62.6926C101.774 62.8728 101.616 63.0993 101.616 63.3723C101.616 63.4706 101.635 63.5381 101.672 63.575C101.708 63.6118 101.777 63.6302 101.878 63.6302H102.456V62.926C102.568 62.8823 102.675 62.8496 102.779 62.8277C102.883 62.8059 102.988 62.795 103.094 62.795C103.378 62.795 103.578 62.8632 103.692 62.9997C103.807 63.1362 103.864 63.3805 103.864 63.7326V63.9987C102.819 64.2499 102.149 64.4778 101.856 64.6825C101.562 64.8872 101.416 65.1684 101.416 65.526C101.416 65.8481 101.513 66.1074 101.708 66.3039C101.904 66.5004 102.164 66.5987 102.488 66.5987ZM102.824 66.1483C102.619 66.1483 102.456 66.0862 102.335 65.962C102.213 65.8378 102.153 65.6706 102.153 65.4604C102.153 65.1984 102.263 64.9869 102.482 64.8258C102.702 64.6648 103.163 64.4873 103.864 64.2935V65.7716C103.643 65.8972 103.447 65.9914 103.277 66.0541C103.106 66.1169 102.955 66.1483 102.824 66.1483ZM107.233 66.5414V66.2384L106.754 66.1974L106.602 66.0623V60.3711H106.283L105.259 60.67V60.932H105.906V66.0623L105.763 66.1974L105.267 66.2384V66.5414H107.233ZM113.765 66.5414V65.1738H113.331L113.188 66.0214L113.069 66.1565H110.821V63.8063H112.197L112.316 63.9332L112.398 64.5392H112.795V62.6926H112.398L112.316 63.3027L112.197 63.4214H110.821V61.3005H112.762L112.877 61.4275L112.996 62.1399H113.466V60.9157H109.45V61.2514L109.925 61.3005L110.068 61.4193V66.0378L109.925 66.1565L109.45 66.1974V66.5414H113.765ZM115.164 66.6151C115.656 66.6151 116.04 66.5038 116.317 66.2814C116.594 66.0589 116.733 65.7512 116.733 65.3581C116.733 65.208 116.705 65.0708 116.651 64.9466C116.596 64.8224 116.517 64.7194 116.413 64.6375C116.271 64.5201 116.042 64.3891 115.725 64.2444C115.635 64.2035 115.568 64.1721 115.525 64.1502C115.246 64.0165 115.058 63.895 114.96 63.7858C114.862 63.6767 114.812 63.5443 114.812 63.3887C114.812 63.1976 114.874 63.0488 114.997 62.9424C115.119 62.8359 115.29 62.7827 115.508 62.7827C115.609 62.7827 115.71 62.7977 115.811 62.8277C115.912 62.8578 116.019 62.9028 116.131 62.9629L116.196 63.5565H116.61V62.6066C116.468 62.5466 116.316 62.5009 116.153 62.4695C115.991 62.4381 115.816 62.4224 115.627 62.4224C115.155 62.4224 114.789 62.5248 114.53 62.7295C114.271 62.9342 114.141 63.2235 114.141 63.5975C114.141 63.8432 114.217 64.0492 114.368 64.2157C114.52 64.3823 114.806 64.5597 115.226 64.748C115.597 64.9173 115.832 65.0571 115.93 65.1677C116.028 65.2782 116.078 65.4181 116.078 65.5874C116.078 65.7894 116.006 65.9525 115.863 66.0767C115.719 66.2009 115.529 66.263 115.291 66.263C115.171 66.263 115.052 66.2466 114.933 66.2138C114.814 66.1811 114.696 66.1306 114.579 66.0623L114.477 65.3499H114.075V66.439C114.231 66.4991 114.401 66.5434 114.585 66.5721C114.769 66.6007 114.963 66.6151 115.164 66.6151ZM118.406 66.5659C118.578 66.5659 118.757 66.5502 118.943 66.5189C119.128 66.4875 119.317 66.4417 119.508 66.3817V66.0705C119.404 66.0951 119.304 66.1128 119.207 66.1237C119.11 66.1347 119.016 66.1401 118.926 66.1401C118.664 66.1401 118.483 66.078 118.382 65.9538C118.281 65.8296 118.23 65.586 118.23 65.223V63.012H119.508V62.6189H118.23V61.7263H117.919L117.559 62.5084L117.006 62.7499V63.012H117.534V65.7184C117.534 66.0405 117.599 66.2623 117.729 66.3837C117.858 66.5052 118.084 66.5659 118.406 66.5659ZM120.743 66.5987C120.94 66.5987 121.15 66.5543 121.376 66.4656C121.601 66.3769 121.848 66.2398 122.119 66.0541L122.229 66.5414H123.408V66.2384L122.966 66.1974L122.823 66.0623V63.6302C122.823 63.2072 122.723 62.9001 122.524 62.709C122.325 62.5179 122.005 62.4224 121.566 62.4224C121.066 62.4224 120.659 62.5125 120.344 62.6926C120.029 62.8728 119.871 63.0993 119.871 63.3723C119.871 63.4706 119.889 63.5381 119.926 63.575C119.963 63.6118 120.032 63.6302 120.133 63.6302H120.71V62.926C120.822 62.8823 120.93 62.8496 121.034 62.8277C121.137 62.8059 121.243 62.795 121.349 62.795C121.633 62.795 121.832 62.8632 121.947 62.9997C122.061 63.1362 122.119 63.3805 122.119 63.7326V63.9987C121.073 64.2499 120.404 64.4778 120.11 64.6825C119.817 64.8872 119.67 65.1684 119.67 65.526C119.67 65.8481 119.768 66.1074 119.963 66.3039C120.158 66.5004 120.418 66.5987 120.743 66.5987ZM121.079 66.1483C120.874 66.1483 120.711 66.0862 120.589 65.962C120.468 65.8378 120.407 65.6706 120.407 65.4604C120.407 65.1984 120.517 64.9869 120.737 64.8258C120.957 64.6648 121.417 64.4873 122.119 64.2935V65.7716C121.898 65.8972 121.702 65.9914 121.531 66.0541C121.361 66.1169 121.21 66.1483 121.079 66.1483ZM124.898 66.5659C125.07 66.5659 125.249 66.5502 125.434 66.5189C125.62 66.4875 125.808 66.4417 125.999 66.3817V66.0705C125.895 66.0951 125.795 66.1128 125.698 66.1237C125.601 66.1347 125.508 66.1401 125.418 66.1401C125.156 66.1401 124.974 66.078 124.873 65.9538C124.772 65.8296 124.722 65.586 124.722 65.223V63.012H125.999V62.6189H124.722V61.7263H124.411L124.05 62.5084L123.497 62.7499V63.012H124.026V65.7184C124.026 66.0405 124.09 66.2623 124.22 66.3837C124.35 66.5052 124.576 66.5659 124.898 66.5659ZM127.988 66.6151C128.258 66.6151 128.527 66.5728 128.795 66.4881C129.062 66.4035 129.32 66.2793 129.568 66.1156V65.6529C129.317 65.8194 129.085 65.9422 128.87 66.0214C128.656 66.1005 128.449 66.1401 128.25 66.1401C127.819 66.1401 127.476 65.9866 127.222 65.6795C126.968 65.3724 126.841 64.9555 126.841 64.4287V64.3345H129.556C129.562 64.3017 129.565 64.2676 129.566 64.2321C129.568 64.1966 129.568 64.1448 129.568 64.0765C129.568 63.5661 129.433 63.1628 129.161 62.8666C128.889 62.5705 128.522 62.4224 128.058 62.4224C127.49 62.4224 127.025 62.621 126.663 63.0181C126.302 63.4153 126.121 63.9278 126.121 64.5556C126.121 65.167 126.294 65.6631 126.639 66.0439C126.984 66.4247 127.434 66.6151 127.988 66.6151ZM128.819 63.9824H126.882C126.907 63.6412 127.021 63.3593 127.224 63.1369C127.428 62.9144 127.669 62.8032 127.947 62.8032C128.231 62.8032 128.447 62.8933 128.596 63.0734C128.745 63.2536 128.819 63.5129 128.819 63.8513V63.9824ZM133.714 66.6437C134.369 66.6437 134.894 66.4888 135.29 66.179C135.686 65.8692 135.884 65.4618 135.884 64.9568C135.884 64.774 135.853 64.6047 135.792 64.4491C135.73 64.2935 135.638 64.1557 135.515 64.0356C135.3 63.8227 134.948 63.6207 134.459 63.4296C134.366 63.3941 134.297 63.3668 134.25 63.3477C133.753 63.1376 133.433 62.9581 133.29 62.8093C133.147 62.6606 133.075 62.4729 133.075 62.2463C133.075 61.9352 133.177 61.6888 133.382 61.5073C133.587 61.3258 133.864 61.235 134.213 61.235C134.361 61.235 134.497 61.2493 134.623 61.278C134.748 61.3067 134.864 61.351 134.971 61.4111L135.094 61.5503L135.221 62.3487H135.659V61.0508C135.413 60.9716 135.172 60.9122 134.936 60.8727C134.7 60.8331 134.464 60.8133 134.23 60.8133C133.646 60.8133 133.177 60.9614 132.823 61.2575C132.47 61.5537 132.293 61.942 132.293 62.4224C132.293 62.7636 132.386 63.0413 132.571 63.2556C132.757 63.4699 133.137 63.7012 133.71 63.9496C133.756 63.9687 133.823 63.9974 133.91 64.0356C134.713 64.3768 135.114 64.7617 135.114 65.1902C135.114 65.4987 135 65.7436 134.772 65.9252C134.544 66.1067 134.235 66.1974 133.845 66.1974C133.659 66.1974 133.487 66.1811 133.329 66.1483C133.171 66.1156 133.03 66.0678 132.907 66.005L132.797 65.8617L132.698 64.8995H132.203V66.3735C132.402 66.4609 132.631 66.5277 132.889 66.5741C133.147 66.6205 133.422 66.6437 133.714 66.6437ZM138.339 66.6151C138.907 66.6151 139.375 66.4192 139.742 66.0275C140.109 65.6358 140.292 65.1329 140.292 64.5187C140.292 63.9046 140.11 63.4016 139.744 63.0099C139.378 62.6182 138.91 62.4224 138.339 62.4224C137.766 62.4224 137.299 62.6176 136.937 63.0079C136.575 63.3982 136.395 63.9018 136.395 64.5187C136.395 65.1356 136.577 65.6392 136.941 66.0296C137.306 66.4199 137.772 66.6151 138.339 66.6151ZM138.339 66.2548C137.993 66.2548 137.713 66.0971 137.5 65.7819C137.287 65.4666 137.181 65.0455 137.181 64.5187C137.181 63.9919 137.286 63.5709 137.498 63.2556C137.71 62.9403 137.99 62.7827 138.339 62.7827C138.689 62.7827 138.971 62.941 139.185 63.2577C139.399 63.5743 139.506 63.9946 139.506 64.5187C139.506 65.0483 139.4 65.47 139.187 65.7839C138.974 66.0978 138.692 66.2548 138.339 66.2548ZM142.523 66.5414V66.2384L142.044 66.1974L141.892 66.0623V60.3711H141.573L140.549 60.67V60.932H141.196V66.0623L141.053 66.1974L140.558 66.2384V66.5414H142.523ZM144.348 66.6233C144.547 66.6233 144.758 66.5782 144.98 66.4881C145.203 66.3981 145.445 66.2589 145.707 66.0705V66.5414H146.948V66.2384L146.555 66.1974L146.403 66.0623V62.4224H146.084L145.109 62.7336V62.9956H145.707V65.8371C145.532 65.9218 145.365 65.9845 145.206 66.0255C145.046 66.0664 144.888 66.0869 144.733 66.0869C144.454 66.0869 144.25 66.0152 144.119 65.8719C143.988 65.7286 143.922 65.5041 143.922 65.1984V62.4224H143.603L142.628 62.7336V62.9956H143.226V65.3417C143.226 65.7566 143.322 66.0739 143.515 66.2937C143.707 66.5134 143.985 66.6233 144.348 66.6233ZM148.511 66.5659C148.683 66.5659 148.862 66.5502 149.047 66.5189C149.233 66.4875 149.421 66.4417 149.612 66.3817V66.0705C149.508 66.0951 149.408 66.1128 149.311 66.1237C149.214 66.1347 149.121 66.1401 149.031 66.1401C148.769 66.1401 148.587 66.078 148.486 65.9538C148.385 65.8296 148.335 65.586 148.335 65.223V63.012H149.612V62.6189H148.335V61.7263H148.024L147.663 62.5084L147.11 62.7499V63.012H147.639V65.7184C147.639 66.0405 147.703 66.2623 147.833 66.3837C147.963 66.5052 148.189 66.5659 148.511 66.5659ZM150.712 61.5708C150.849 61.5708 150.964 61.5244 151.058 61.4315C151.153 61.3387 151.2 61.2255 151.2 61.0917C151.2 60.958 151.153 60.8433 151.058 60.7478C150.964 60.6522 150.849 60.6045 150.712 60.6045C150.579 60.6045 150.465 60.6516 150.371 60.7457C150.276 60.8399 150.229 60.9552 150.229 61.0917C150.229 61.2255 150.276 61.3387 150.371 61.4315C150.465 61.5244 150.579 61.5708 150.712 61.5708ZM151.601 66.5414V66.2384L151.151 66.1974L151.007 66.0623V62.4674H150.68L149.718 62.7663V63.0284H150.303V66.0623L150.16 66.1974L149.718 66.2384V66.5414H151.601ZM153.745 66.6151C154.313 66.6151 154.781 66.4192 155.148 66.0275C155.515 65.6358 155.698 65.1329 155.698 64.5187C155.698 63.9046 155.515 63.4016 155.15 63.0099C154.784 62.6182 154.316 62.4224 153.745 62.4224C153.172 62.4224 152.705 62.6176 152.343 63.0079C151.981 63.3982 151.801 63.9018 151.801 64.5187C151.801 65.1356 151.983 65.6392 152.347 66.0296C152.712 66.4199 153.178 66.6151 153.745 66.6151ZM153.745 66.2548C153.399 66.2548 153.119 66.0971 152.906 65.7819C152.693 65.4666 152.587 65.0455 152.587 64.5187C152.587 63.9919 152.692 63.5709 152.904 63.2556C153.115 62.9403 153.396 62.7827 153.745 62.7827C154.095 62.7827 154.377 62.941 154.591 63.2577C154.805 63.5743 154.912 63.9946 154.912 64.5187C154.912 65.0483 154.806 65.47 154.593 65.7839C154.38 66.0978 154.097 66.2548 153.745 66.2548ZM157.818 66.5414V66.2384L157.417 66.1974L157.274 66.0623V63.2536C157.454 63.1608 157.622 63.0918 157.777 63.0468C157.933 63.0018 158.078 62.9792 158.211 62.9792C158.517 62.9792 158.735 63.0447 158.864 63.1758C158.994 63.3068 159.059 63.5293 159.059 63.8432V66.0623L158.915 66.1974L158.514 66.2384V66.5414H160.349V66.2384L159.898 66.1974L159.755 66.0623V63.6999C159.755 63.285 159.658 62.9683 159.464 62.7499C159.27 62.5316 158.991 62.4224 158.625 62.4224C158.469 62.4224 158.289 62.4599 158.084 62.535C157.88 62.6101 157.609 62.7404 157.274 62.926V62.4674H156.954L155.98 62.7663V63.0284H156.578V66.0623L156.434 66.1974L155.98 66.2384V66.5414H157.818Z" fill="#04091E"/>
<path id="Icon" fill-rule="evenodd" clip-rule="evenodd" d="M9 33H43.939V67.939H9V33ZM35.0039 41.9348L17.9333 41.9329V59.0051L17.9276 59.0105L17.9278 59.0117H35.0117L35.0103 41.9287L35.0095 41.9285L35.0039 41.9348Z" fill="#04091E"/>
</g>
</g>
</g>
</g>
</g>
</svg>
