<svg width="170" height="100" viewBox="0 0 170 100" fill="none" xmlns="http://www.w3.org/2000/svg">
<g id="Logo 03">
<rect id="Bg Shape" width="170" height="100" fill="white"/>
<g id="10">
<g id="Logo">
<g id="1">
<g id="10_2">
<g id="Group-5">
<path id="Fill-1" fill-rule="evenodd" clip-rule="evenodd" d="M5 48.4461V55.8113L25.9634 38.4863V31.1211L5 48.4461Z" fill="#04091E"/>
<path id="Fill-2" fill-rule="evenodd" clip-rule="evenodd" d="M5 62.8877V70.2527L25.9634 52.9277V45.5625L5 62.8877Z" fill="#04091E"/>
<path id="Fill-3" fill-rule="evenodd" clip-rule="evenodd" d="M14.3203 48.4461V55.8113L35.2837 38.4863V31.1211L14.3203 48.4461Z" fill="#04091E"/>
<path id="Fill-4" fill-rule="evenodd" clip-rule="evenodd" d="M14.3203 62.8877V70.2527L35.2837 52.9277V45.5625L14.3203 62.8877Z" fill="#04091E"/>
</g>
<path id="Gobona" d="M59.6909 56.2384C60.942 56.2384 62.2158 56.1189 63.5124 55.8801C64.8089 55.6413 66.1453 55.283 67.5215 54.8053V46.6506L68.0674 46.1729L70.0976 46.0023V44.2793H59.8956V46.0023L62.4888 46.1729L63.0347 46.6506V53.7817C62.6025 53.8158 62.2215 53.8414 61.8917 53.8585C61.5618 53.8755 61.3059 53.8841 61.124 53.8841C58.4057 53.8841 56.2818 53.0055 54.752 51.2483C53.2223 49.4911 52.4575 47.0544 52.4575 43.9381C52.4575 40.9014 53.2053 38.5158 54.7009 36.7814C56.1965 35.0469 58.2522 34.1797 60.8681 34.1797C61.3912 34.1797 61.8917 34.2252 62.3694 34.3162C62.847 34.4072 63.3133 34.5493 63.7683 34.7427L64.2971 35.3739L64.9625 39.0759H67.5215V33.1391C66.2249 32.7524 64.9596 32.4623 63.7256 32.269C62.4916 32.0756 61.2946 31.979 60.1345 31.979C56.2903 31.979 53.2053 33.068 50.8794 35.246C48.5536 37.424 47.3906 40.3213 47.3906 43.9381C47.3906 47.5889 48.528 50.5517 50.8026 52.8264C53.0773 55.101 56.0401 56.2384 59.6909 56.2384ZM79.6978 56.0848C82.4274 56.0848 84.6168 55.2887 86.2659 53.6964C87.9151 52.1041 88.7397 50.0001 88.7397 47.3842C88.7397 44.6205 87.9492 42.4283 86.3683 40.8075C84.7874 39.1868 82.6549 38.3765 79.9708 38.3765C77.2412 38.3765 75.0518 39.1925 73.4027 40.8246C71.7535 42.4567 70.929 44.6205 70.929 47.316C70.929 49.9432 71.7336 52.0615 73.343 53.6708C74.9523 55.2802 77.0706 56.0848 79.6978 56.0848ZM79.8002 54.2423C78.5377 54.2423 77.5511 53.6225 76.8403 52.3828C76.1294 51.1431 75.774 49.4087 75.774 47.1795C75.774 44.9844 76.1323 43.2784 76.8488 42.0615C77.5653 40.8445 78.5605 40.236 79.8343 40.236C81.1195 40.236 82.1232 40.8559 82.8454 42.0956C83.5676 43.3353 83.9287 45.064 83.9287 47.2818C83.9287 49.511 83.5705 51.2284 82.8539 52.434C82.1374 53.6396 81.1195 54.2423 79.8002 54.2423ZM96.2927 55.8119C97.6689 55.8119 98.8432 55.7465 99.8156 55.6157C100.788 55.4849 101.593 55.283 102.23 55.01C104.027 54.2025 105.394 53.0624 106.333 51.5895C107.271 50.1166 107.74 48.368 107.74 46.3435C107.74 44.012 107.097 42.107 105.812 40.6284C104.527 39.1499 102.878 38.4106 100.865 38.4106C100.103 38.4106 99.3067 38.5386 98.4764 38.7945C97.6461 39.0504 96.7533 39.4456 95.798 39.9801V30H94.1261L88.9398 31.6378V33.0026H91.4647V55.7436L95.3373 55.8119H96.2927ZM96.9069 53.9523C96.6112 53.9523 96.3837 53.9495 96.2245 53.9438C96.0652 53.9381 95.9231 53.9296 95.798 53.9182V41.4132C96.2529 41.3222 96.6595 41.254 97.0178 41.2085C97.376 41.163 97.703 41.1402 97.9987 41.1402C99.6251 41.1402 100.876 41.6662 101.752 42.7183C102.628 43.7703 103.066 45.2801 103.066 47.2477C103.066 49.5451 102.568 51.2369 101.573 52.3231C100.578 53.4092 99.0223 53.9523 96.9069 53.9523ZM117.699 56.0848C120.428 56.0848 122.618 55.2887 124.267 53.6964C125.916 52.1041 126.74 50.0001 126.74 47.3842C126.74 44.6205 125.95 42.4283 124.369 40.8075C122.788 39.1868 120.656 38.3765 117.971 38.3765C115.242 38.3765 113.053 39.1925 111.403 40.8246C109.754 42.4567 108.93 44.6205 108.93 47.316C108.93 49.9432 109.734 52.0615 111.344 53.6708C112.953 55.2802 115.071 56.0848 117.699 56.0848ZM117.801 54.2423C116.538 54.2423 115.552 53.6225 114.841 52.3828C114.13 51.1431 113.775 49.4087 113.775 47.1795C113.775 44.9844 114.133 43.2784 114.85 42.0615C115.566 40.8445 116.561 40.236 117.835 40.236C119.12 40.236 120.124 40.8559 120.846 42.0956C121.568 43.3353 121.929 45.064 121.929 47.2818C121.929 49.511 121.571 51.2284 120.855 52.434C120.138 53.6396 119.12 54.2423 117.801 54.2423ZM136.341 55.8119V54.2423L134.805 54.1059L134.328 53.577V42.0444C135.01 41.8511 135.627 41.7032 136.179 41.6008C136.73 41.4985 137.216 41.4473 137.637 41.4473C138.729 41.4473 139.525 41.7515 140.026 42.36C140.526 42.9685 140.776 43.921 140.776 45.2176V53.577L140.299 54.1059L138.797 54.2423V55.8119H147.344V54.2423L145.502 54.1059L145.041 53.577V44.211C145.041 42.2548 144.649 40.799 143.864 39.8437C143.079 38.8883 141.891 38.4106 140.299 38.4106C139.582 38.4106 138.74 38.5812 137.774 38.9224C136.807 39.2636 135.658 39.8038 134.328 40.5431V38.4788H132.639L127.606 40.1166V41.5155H129.994V53.577L129.5 54.1059L127.708 54.2423V55.8119H136.341ZM152.577 56.1189C153.464 56.1189 154.391 55.937 155.358 55.573C156.325 55.2091 157.4 54.6233 158.582 53.8158L159.043 55.8119H165.27V54.2765L163.41 54.1059L162.95 53.6111V44.5693C162.95 42.2832 162.461 40.6796 161.483 39.7584C160.504 38.8371 158.816 38.3765 156.416 38.3765C154.278 38.3765 152.475 38.7802 151.008 39.5878C149.541 40.3953 148.807 41.3449 148.807 42.4368C148.807 42.8803 148.935 43.2045 149.191 43.4092C149.447 43.6139 149.853 43.7163 150.411 43.7163H153.635V40.4408C153.953 40.3725 154.249 40.3213 154.522 40.2872C154.795 40.2531 155.057 40.236 155.307 40.236C156.456 40.236 157.297 40.5261 157.832 41.1061C158.366 41.6861 158.634 42.6074 158.634 43.8698V44.9105C154.05 45.9455 151.133 46.9065 149.882 47.7936C148.631 48.6808 148.005 49.9432 148.005 51.581C148.005 52.9117 148.432 54.0007 149.285 54.848C150.138 55.6953 151.235 56.1189 152.577 56.1189ZM155.204 53.4405C154.408 53.4405 153.777 53.2045 153.311 52.7325C152.845 52.2605 152.611 51.6208 152.611 50.8133C152.611 49.7783 153.032 48.9594 153.874 48.3566C154.715 47.7538 156.285 47.1965 158.582 46.6847V52.3828C157.9 52.7354 157.277 52.9998 156.714 53.1761C156.151 53.3524 155.648 53.4405 155.204 53.4405Z" fill="#04091E"/>
<path id="YourTrustedCurrier" d="M51.5218 68.3901V67.9888L50.8578 67.941L50.7002 67.8025V65.6004L52.7351 62.3426L53.3322 62.2184V61.8267H51.3355V62.2184L51.9326 62.3235L52.0233 62.462L50.3801 65.075L48.8802 62.3856L48.9805 62.2757L49.5394 62.2184V61.8267H47.2656V62.2184L47.8627 62.314L49.8117 65.7294V67.8025L49.654 67.941L48.9901 67.9888V68.3901H51.5218ZM54.4965 68.4761C55.1588 68.4761 55.7042 68.2476 56.1325 67.7906C56.5608 67.3336 56.775 66.7468 56.775 66.0303C56.775 65.3138 56.5616 64.727 56.1349 64.2701C55.7082 63.8131 55.162 63.5846 54.4965 63.5846C53.8277 63.5846 53.2823 63.8123 52.8604 64.2677C52.4384 64.7231 52.2275 65.3106 52.2275 66.0303C52.2275 66.75 52.44 67.3376 52.8652 67.793C53.2903 68.2484 53.8341 68.4761 54.4965 68.4761ZM54.4965 68.0557C54.092 68.0557 53.7656 67.8718 53.5172 67.504C53.2688 67.1362 53.1446 66.6449 53.1446 66.0303C53.1446 65.4157 53.268 64.9245 53.5148 64.5567C53.7616 64.1889 54.0888 64.005 54.4965 64.005C54.9041 64.005 55.2329 64.1897 55.4829 64.5591C55.7329 64.9285 55.8578 65.4189 55.8578 66.0303C55.8578 66.6481 55.7336 67.1401 55.4853 67.5064C55.2369 67.8726 54.9073 68.0557 54.4965 68.0557ZM59.0714 68.4856C59.3038 68.4856 59.5498 68.4331 59.8094 68.328C60.0689 68.2229 60.3516 68.0605 60.6573 67.8407V68.3901H62.1046V68.0366L61.6461 67.9888L61.4693 67.8312V63.5846H61.0967L59.9599 63.9476V64.2533H60.6573V67.5685C60.4535 67.6672 60.2584 67.7404 60.0721 67.7882C59.8858 67.836 59.7019 67.8598 59.5204 67.8598C59.1956 67.8598 58.9567 67.7762 58.8039 67.6091C58.651 67.4419 58.5746 67.1799 58.5746 66.8233V63.5846H58.202L57.0651 63.9476V64.2533H57.7625V66.9905C57.7625 67.4745 57.8748 67.8447 58.0993 68.1011C58.3238 68.3574 58.6478 68.4856 59.0714 68.4856ZM64.702 68.3901V68.0366L64.0189 67.9888L63.8517 67.8312V65.0367C64.0587 64.7915 64.249 64.6108 64.4225 64.4946C64.5961 64.3783 64.7609 64.3202 64.9169 64.3202C65.0188 64.3202 65.112 64.3401 65.1964 64.3799C65.2807 64.4197 65.3548 64.4779 65.4185 64.5543H65.729V63.7136C65.6271 63.669 65.5283 63.6363 65.4328 63.6156C65.3373 63.5949 65.2401 63.5846 65.1414 63.5846C65.0745 63.5846 65.0244 63.5862 64.991 63.5894C64.9575 63.5926 64.9265 63.5989 64.8978 63.6085C64.7067 63.7613 64.5244 63.9166 64.3509 64.0742C64.1773 64.2318 64.0109 64.3919 63.8517 64.5543V63.6371H63.4791L62.3422 63.9858V64.2916H63.0301V67.8312L62.8629 67.9888L62.3422 68.0366V68.3901H64.702ZM72.0509 68.3901V67.9888L71.3917 67.941L71.2293 67.8025V62.2757H72.7245L72.863 62.4238L72.9967 63.3314H73.5365V61.8267H68.0097V63.3314H68.5447L68.6833 62.4238L68.8218 62.2757H70.3169V67.8025L70.1498 67.941L69.4953 67.9888V68.3901H72.0509ZM75.3074 68.3901V68.0366L74.6244 67.9888L74.4572 67.8312V65.0367C74.6642 64.7915 74.8544 64.6108 75.028 64.4946C75.2016 64.3783 75.3664 64.3202 75.5224 64.3202C75.6243 64.3202 75.7175 64.3401 75.8018 64.3799C75.8862 64.4197 75.9603 64.4779 76.024 64.5543H76.3345V63.7136C76.2326 63.669 76.1338 63.6363 76.0383 63.6156C75.9428 63.5949 75.8456 63.5846 75.7469 63.5846C75.68 63.5846 75.6299 63.5862 75.5964 63.5894C75.563 63.5926 75.532 63.5989 75.5033 63.6085C75.3122 63.7613 75.1299 63.9166 74.9564 64.0742C74.7828 64.2318 74.6164 64.3919 74.4572 64.5543V63.6371H74.0846L72.9477 63.9858V64.2916H73.6356V67.8312L73.4684 67.9888L72.9477 68.0366V68.3901H75.3074ZM78.3251 68.4856C78.5576 68.4856 78.8036 68.4331 79.0631 68.328C79.3227 68.2229 79.6053 68.0605 79.911 67.8407V68.3901H81.3584V68.0366L80.8998 67.9888L80.7231 67.8312V63.5846H80.3505L79.2136 63.9476V64.2533H79.911V67.5685C79.7072 67.6672 79.5122 67.7404 79.3259 67.7882C79.1396 67.836 78.9557 67.8598 78.7741 67.8598C78.4493 67.8598 78.2105 67.7762 78.0576 67.6091C77.9048 67.4419 77.8283 67.1799 77.8283 66.8233V63.5846H77.4557L76.3189 63.9476V64.2533H77.0163V66.9905C77.0163 67.4745 77.1285 67.8447 77.353 68.1011C77.5775 68.3574 77.9016 68.4856 78.3251 68.4856ZM82.986 68.4761C83.5592 68.4761 84.0075 68.3463 84.3307 68.0867C84.6539 67.8272 84.8155 67.4681 84.8155 67.0096C84.8155 66.8344 84.7837 66.6744 84.72 66.5295C84.6563 66.3846 84.564 66.2644 84.4429 66.1688C84.2773 66.0319 84.0098 65.8791 83.6404 65.7103C83.5353 65.6625 83.4573 65.6259 83.4064 65.6004C83.0816 65.4444 82.8618 65.3027 82.7472 65.1753C82.6325 65.0479 82.5752 64.8934 82.5752 64.7119C82.5752 64.489 82.6469 64.3154 82.7902 64.1912C82.9335 64.067 83.1325 64.005 83.3873 64.005C83.5051 64.005 83.6229 64.0225 83.7407 64.0575C83.8586 64.0925 83.9828 64.1451 84.1133 64.2151L84.1898 64.9078H84.6722V63.7995C84.5066 63.7295 84.3291 63.6761 84.1396 63.6395C83.9501 63.6029 83.7455 63.5846 83.5258 63.5846C82.9749 63.5846 82.5481 63.704 82.2456 63.9429C81.9431 64.1817 81.7918 64.5193 81.7918 64.9555C81.7918 65.2421 81.8802 65.4826 82.0569 65.6768C82.2337 65.8711 82.5672 66.0781 83.0577 66.2978C83.4908 66.4953 83.7646 66.6585 83.8793 66.7874C83.9939 66.9164 84.0512 67.0796 84.0512 67.2771C84.0512 67.5127 83.9677 67.703 83.8005 67.8479C83.6333 67.9928 83.4112 68.0652 83.1341 68.0652C82.994 68.0652 82.8547 68.0461 82.7161 68.0079C82.5776 67.9697 82.4399 67.9108 82.3029 67.8312L82.1835 67H81.7154V68.2706C81.8969 68.3407 82.0951 68.3925 82.3101 68.4259C82.5251 68.4593 82.7504 68.4761 82.986 68.4761ZM86.768 68.4187C86.9686 68.4187 87.1772 68.4004 87.3937 68.3638C87.6103 68.3272 87.83 68.2738 88.0529 68.2038V67.8407C87.9319 67.8694 87.8149 67.8901 87.7018 67.9028C87.5888 67.9156 87.4797 67.9219 87.3746 67.9219C87.0689 67.9219 86.8571 67.8495 86.7393 67.7046C86.6215 67.5597 86.5626 67.2755 86.5626 66.8519V64.2725H88.0529V63.8139H86.5626V62.7725H86.1995L85.7792 63.6849L85.1343 63.9667V64.2725H85.7505V67.4299C85.7505 67.8057 85.8261 68.0644 85.9774 68.2062C86.1287 68.3479 86.3922 68.4187 86.768 68.4187ZM90.3732 68.4761C90.6885 68.4761 91.0022 68.4267 91.3142 68.328C91.6263 68.2292 91.9273 68.0844 92.2171 67.8933V67.3535C91.9241 67.5478 91.6526 67.6911 91.4026 67.7834C91.1526 67.8758 90.9114 67.9219 90.6789 67.9219C90.1758 67.9219 89.7761 67.7428 89.4799 67.3845C89.1838 67.0263 89.0357 66.5398 89.0357 65.9252V65.8154H92.2027C92.2091 65.7771 92.2131 65.7373 92.2147 65.6959C92.2163 65.6545 92.2171 65.594 92.2171 65.5144C92.2171 64.9189 92.0586 64.4484 91.7418 64.1029C91.4249 63.7574 90.9958 63.5846 90.4544 63.5846C89.792 63.5846 89.2499 63.8163 88.8279 64.2796C88.406 64.743 88.195 65.3409 88.195 66.0733C88.195 66.7867 88.3964 67.3654 88.7992 67.8097C89.2021 68.2539 89.7267 68.4761 90.3732 68.4761ZM91.3429 65.4046H89.0835C89.1121 65.0065 89.2451 64.6777 89.4823 64.4181C89.7196 64.1586 90.0006 64.0288 90.3254 64.0288C90.6566 64.0288 90.909 64.1339 91.0826 64.3441C91.2561 64.5543 91.3429 64.8568 91.3429 65.2517V65.4046ZM94.5516 68.4761C94.816 68.4761 95.0691 68.4283 95.3112 68.3327C95.5532 68.2372 95.8016 68.0875 96.0563 67.8837V68.3901H97.5037V68.0366L97.0356 67.9888L96.8684 67.8312V61.1914H96.5006L95.3064 61.5401V61.8458H96.0563V63.6849C95.9003 63.6499 95.749 63.6228 95.6025 63.6037C95.4561 63.5846 95.3175 63.575 95.187 63.575C94.4386 63.575 93.8311 63.8163 93.3646 64.2987C92.8981 64.7812 92.6648 65.4109 92.6648 66.188C92.6648 66.8567 92.8423 67.4052 93.1974 67.8336C93.5525 68.2619 94.0039 68.4761 94.5516 68.4761ZM94.9911 67.8598C94.5453 67.8598 94.1894 67.6942 93.9235 67.3631C93.6576 67.0319 93.5246 66.5844 93.5246 66.0208C93.5246 65.4157 93.6783 64.9285 93.9856 64.5591C94.2929 64.1897 94.6965 64.005 95.1965 64.005C95.308 64.005 95.4346 64.0185 95.5763 64.0456C95.718 64.0726 95.878 64.1116 96.0563 64.1626V67.5207C95.8716 67.6353 95.6909 67.7205 95.5142 67.7762C95.3374 67.832 95.1631 67.8598 94.9911 67.8598ZM103.682 68.5095C104.007 68.5095 104.337 68.48 104.671 68.4211C105.006 68.3622 105.334 68.277 105.655 68.1656V66.6179H105.13L104.891 67.707L104.738 67.8598C104.595 67.9044 104.452 67.9371 104.311 67.9578C104.169 67.9785 104.028 67.9888 103.888 67.9888C103.088 67.9888 102.463 67.7269 102.01 67.203C101.558 66.6792 101.332 65.9571 101.332 65.0367C101.332 64.1705 101.549 63.4859 101.982 62.9827C102.415 62.4796 103.001 62.228 103.74 62.228C103.924 62.228 104.106 62.2487 104.284 62.2901C104.463 62.3315 104.646 62.3952 104.834 62.4811L104.963 62.6579L105.111 63.5464H105.655V62.0417C105.305 61.9302 104.968 61.8466 104.645 61.7909C104.322 61.7352 104.014 61.7073 103.721 61.7073C102.702 61.7073 101.881 62.0186 101.258 62.6412C100.636 63.2637 100.324 64.0846 100.324 65.1036C100.324 65.7405 100.475 66.3273 100.776 66.8639C101.077 67.4005 101.49 67.8184 102.015 68.1178C102.245 68.2452 102.499 68.3423 102.78 68.4092C103.06 68.4761 103.361 68.5095 103.682 68.5095ZM108.018 68.4856C108.251 68.4856 108.497 68.4331 108.756 68.328C109.016 68.2229 109.299 68.0605 109.604 67.8407V68.3901H111.052V68.0366L110.593 67.9888L110.416 67.8312V63.5846H110.044L108.907 63.9476V64.2533H109.604V67.5685C109.401 67.6672 109.205 67.7404 109.019 67.7882C108.833 67.836 108.649 67.8598 108.467 67.8598C108.143 67.8598 107.904 67.7762 107.751 67.6091C107.598 67.4419 107.522 67.1799 107.522 66.8233V63.5846H107.149L106.012 63.9476V64.2533H106.71V66.9905C106.71 67.4745 106.822 67.8447 107.046 68.1011C107.271 68.3574 107.595 68.4856 108.018 68.4856ZM113.649 68.3901V68.0366L112.966 67.9888L112.799 67.8312V65.0367C113.006 64.7915 113.196 64.6108 113.37 64.4946C113.543 64.3783 113.708 64.3202 113.864 64.3202C113.966 64.3202 114.059 64.3401 114.143 64.3799C114.228 64.4197 114.302 64.4779 114.366 64.5543H114.676V63.7136C114.574 63.669 114.475 63.6363 114.38 63.6156C114.284 63.5949 114.187 63.5846 114.089 63.5846C114.022 63.5846 113.971 63.5862 113.938 63.5894C113.905 63.5926 113.874 63.5989 113.845 63.6085C113.654 63.7613 113.471 63.9166 113.298 64.0742C113.124 64.2318 112.958 64.3919 112.799 64.5543V63.6371H112.426L111.289 63.9858V64.2916H111.977V67.8312L111.81 67.9888L111.289 68.0366V68.3901H113.649ZM117.058 68.3901V68.0366L116.375 67.9888L116.208 67.8312V65.0367C116.415 64.7915 116.605 64.6108 116.779 64.4946C116.953 64.3783 117.117 64.3202 117.273 64.3202C117.375 64.3202 117.468 64.3401 117.553 64.3799C117.637 64.4197 117.711 64.4779 117.775 64.5543H118.085V63.7136C117.984 63.669 117.885 63.6363 117.789 63.6156C117.694 63.5949 117.597 63.5846 117.498 63.5846C117.431 63.5846 117.381 63.5862 117.347 63.5894C117.314 63.5926 117.283 63.5989 117.254 63.6085C117.063 63.7613 116.881 63.9166 116.707 64.0742C116.534 64.2318 116.367 64.3919 116.208 64.5543V63.6371H115.836L114.699 63.9858V64.2916H115.387V67.8312L115.219 67.9888L114.699 68.0366V68.3901H117.058ZM119.321 62.591C119.481 62.591 119.615 62.5369 119.725 62.4286C119.835 62.3203 119.89 62.1882 119.89 62.0321C119.89 61.8761 119.835 61.7423 119.725 61.6309C119.615 61.5194 119.481 61.4637 119.321 61.4637C119.165 61.4637 119.032 61.5186 118.922 61.6285C118.813 61.7384 118.758 61.8729 118.758 62.0321C118.758 62.1882 118.813 62.3203 118.922 62.4286C119.032 62.5369 119.165 62.591 119.321 62.591ZM120.358 68.3901V68.0366L119.832 67.9888L119.665 67.8312V63.6371H119.283L118.161 63.9858V64.2916H118.844V67.8312L118.676 67.9888L118.161 68.0366V68.3901H120.358ZM122.769 68.4761C123.084 68.4761 123.398 68.4267 123.71 68.328C124.022 68.2292 124.323 68.0844 124.613 67.8933V67.3535C124.32 67.5478 124.048 67.6911 123.798 67.7834C123.548 67.8758 123.307 67.9219 123.075 67.9219C122.571 67.9219 122.172 67.7428 121.876 67.3845C121.579 67.0263 121.431 66.5398 121.431 65.9252V65.8154H124.598C124.605 65.7771 124.609 65.7373 124.61 65.6959C124.612 65.6545 124.613 65.594 124.613 65.5144C124.613 64.9189 124.454 64.4484 124.137 64.1029C123.821 63.7574 123.392 63.5846 122.85 63.5846C122.188 63.5846 121.646 63.8163 121.224 64.2796C120.802 64.743 120.591 65.3409 120.591 66.0733C120.591 66.7867 120.792 67.3654 121.195 67.8097C121.598 68.2539 122.122 68.4761 122.769 68.4761ZM123.739 65.4046H121.479C121.508 65.0065 121.641 64.6777 121.878 64.4181C122.115 64.1586 122.396 64.0288 122.721 64.0288C123.052 64.0288 123.305 64.1339 123.478 64.3441C123.652 64.5543 123.739 64.8568 123.739 65.2517V65.4046ZM127.358 68.3901V68.0366L126.675 67.9888L126.508 67.8312V65.0367C126.715 64.7915 126.905 64.6108 127.079 64.4946C127.252 64.3783 127.417 64.3202 127.573 64.3202C127.675 64.3202 127.768 64.3401 127.853 64.3799C127.937 64.4197 128.011 64.4779 128.075 64.5543H128.385V63.7136C128.283 63.669 128.185 63.6363 128.089 63.6156C127.993 63.5949 127.896 63.5846 127.798 63.5846C127.731 63.5846 127.681 63.5862 127.647 63.5894C127.614 63.5926 127.583 63.5989 127.554 63.6085C127.363 63.7613 127.181 63.9166 127.007 64.0742C126.834 64.2318 126.667 64.3919 126.508 64.5543V63.6371H126.135L124.998 63.9858V64.2916H125.686V67.8312L125.519 67.9888L124.998 68.0366V68.3901H127.358Z" fill="#04091E"/>
</g>
</g>
</g>
</g>
</g>
</svg>
