<svg width="36" height="36" viewBox="0 0 36 36" fill="none" xmlns="http://www.w3.org/2000/svg">
<g id="Group">
<path id="Vector" fill-rule="evenodd" clip-rule="evenodd" d="M18 0C8.0625 0 0 8.0625 0 18C0 27.9375 8.0625 36 18 36C27.918 36 36 27.9375 36 18C36 8.0625 27.918 0 18 0ZM29.889 8.2965C32.1052 10.9955 33.3316 14.3713 33.3645 17.8635C32.8575 17.766 27.7815 16.731 22.6665 17.376C22.548 17.121 22.4505 16.848 22.3335 16.575C22.0154 15.8241 21.6773 15.0818 21.3195 14.349C26.9805 12.045 29.5575 8.727 29.889 8.2965ZM18 2.6565C21.9045 2.6565 25.4775 4.119 28.191 6.5205C27.918 6.9105 25.5945 10.0155 20.1285 12.0645C17.6085 7.4385 14.8185 3.6495 14.388 3.0645C15.572 2.78803 16.7842 2.6506 18 2.655V2.6565ZM11.46 4.0995C11.8695 4.647 14.6025 8.454 17.16 12.9825C9.975 14.8965 3.63 14.8575 2.9475 14.8575C3.9435 10.0935 7.1655 6.1305 11.46 4.0995ZM2.616 18.0195V17.5515C3.2805 17.571 10.737 17.6685 18.411 15.3645C18.8595 16.224 19.269 17.1015 19.659 17.9805C19.464 18.039 19.2495 18.0975 19.0545 18.156C11.1285 20.7135 6.9105 27.702 6.5595 28.2885C4.02062 25.4708 2.6157 21.8123 2.616 18.0195ZM18 33.384C14.4465 33.384 11.1675 32.1735 8.571 30.144C8.844 29.577 11.967 23.5635 20.6355 20.538C20.6745 20.5185 20.6955 20.5185 20.733 20.499C22.9005 26.1015 23.778 30.807 24.0135 32.154C22.158 32.955 20.1285 33.384 18 33.384ZM26.571 30.7485C26.415 29.811 25.5945 25.3215 23.583 19.7955C28.4055 19.035 32.622 20.2845 33.15 20.46C32.4855 24.735 30.0255 28.425 26.571 30.7485Z" fill="#0B0B0B"/>
</g>
</svg>
