<svg width="58" height="36" viewBox="0 0 58 36" fill="none" xmlns="http://www.w3.org/2000/svg">
<path id="Vector" d="M37.4417 2.38135H51.7513V5.85296H37.4417V2.38135ZM23.1034 16.1172C26.2666 14.6037 27.9235 12.3013 27.9235 8.74357C27.9235 1.70711 22.6874 0 16.6408 0H0V35.3186H17.107C23.5194 35.3186 29.5374 32.2343 29.5374 25.0616C29.5374 20.6288 27.4429 17.3509 23.1034 16.1172ZM7.76091 6.0251H15.0412C17.8458 6.0251 20.3634 6.80693 20.3634 10.0634C20.3634 13.0616 18.4053 14.2666 15.6294 14.2666H7.76091V6.0251ZM16.0454 29.3222H7.75374V19.5959H16.2104C19.6246 19.5959 21.7836 21.0233 21.7836 24.6384C21.7836 28.1961 19.2086 29.3222 16.0454 29.3222ZM57.3461 22.9026C57.3461 15.3353 52.9205 9.03048 44.9157 9.03048C37.1333 9.03048 31.8398 14.8906 31.8398 22.5726C31.8398 30.5344 36.8536 36 44.9157 36C51.0197 36 54.9719 33.2528 56.8727 27.3927H50.6826C50.0084 29.5804 47.2684 30.728 45.1381 30.728C41.0209 30.728 38.8691 28.318 38.8691 24.2224H57.2959C57.3174 23.7992 57.3461 23.3545 57.3461 22.9026ZM38.8691 19.7896C39.0915 16.4256 41.3365 14.324 44.6934 14.324C48.2224 14.324 49.9869 16.3969 50.2953 19.7896H38.8691Z" fill="#0B0B0B"/>
</svg>
