<svg width="36" height="36" viewBox="0 0 36 36" fill="none" xmlns="http://www.w3.org/2000/svg">
<g id="Group 11564">
<path id="Vector" d="M27.6092 10.5519C28.8022 10.5519 29.7692 9.58487 29.7692 8.39193C29.7692 7.199 28.8022 6.23193 27.6092 6.23193C26.4163 6.23193 25.4492 7.199 25.4492 8.39193C25.4492 9.58487 26.4163 10.5519 27.6092 10.5519Z" fill="#0B0B0B"/>
<path id="Vector_2" d="M17.9997 8.75635C16.1716 8.75635 14.3846 9.29844 12.8646 10.3141C11.3446 11.3297 10.1599 12.7733 9.4603 14.4622C8.76072 16.1511 8.57768 18.0096 8.93432 19.8026C9.29096 21.5955 10.1713 23.2425 11.4639 24.5351C12.7566 25.8278 14.4035 26.7081 16.1965 27.0647C17.9895 27.4214 19.8479 27.2383 21.5369 26.5388C23.2258 25.8392 24.6694 24.6545 25.685 23.1345C26.7006 21.6145 27.2427 19.8274 27.2427 17.9993C27.2427 15.548 26.2689 13.197 24.5355 11.4636C22.8021 9.73016 20.4511 8.75635 17.9997 8.75635ZM17.9997 23.9993C16.813 23.9993 15.653 23.6475 14.6663 22.9882C13.6796 22.3289 12.9106 21.3918 12.4564 20.2954C12.0023 19.1991 11.8835 17.9927 12.115 16.8288C12.3465 15.6649 12.918 14.5958 13.7571 13.7567C14.5962 12.9176 15.6653 12.3461 16.8292 12.1146C17.9931 11.8831 19.1995 12.0019 20.2958 12.4561C21.3922 12.9102 22.3292 13.6792 22.9885 14.6659C23.6478 15.6526 23.9997 16.8127 23.9997 17.9993C23.9997 19.5906 23.3676 21.1168 22.2424 22.242C21.1171 23.3672 19.591 23.9993 17.9997 23.9993Z" fill="#0B0B0B"/>
<path id="Vector_3" d="M18 3.243C22.806 3.243 23.376 3.261 25.2735 3.348C26.4148 3.36155 27.5452 3.5711 28.6155 3.9675C29.392 4.26704 30.0972 4.72582 30.6857 5.31432C31.2742 5.90282 31.733 6.60801 32.0325 7.3845C32.4289 8.45479 32.6385 9.58524 32.652 10.7265C32.739 12.624 32.757 13.194 32.757 18.0015C32.757 22.809 32.739 23.376 32.652 25.2735C32.6385 26.4148 32.4289 27.5452 32.0325 28.6155C31.733 29.392 31.2742 30.0972 30.6857 30.6857C30.0972 31.2742 29.392 31.733 28.6155 32.0325C27.5452 32.4289 26.4148 32.6385 25.2735 32.652C23.376 32.739 22.806 32.757 18 32.757C13.194 32.757 12.624 32.739 10.7265 32.652C9.58524 32.6385 8.45479 32.4289 7.3845 32.0325C6.60801 31.733 5.90282 31.2742 5.31432 30.6857C4.72582 30.0972 4.26704 29.392 3.9675 28.6155C3.5711 27.5452 3.36155 26.4148 3.348 25.2735C3.261 23.376 3.243 22.806 3.243 18C3.243 13.194 3.261 12.624 3.348 10.7265C3.36155 9.58524 3.5711 8.45479 3.9675 7.3845C4.26704 6.60801 4.72582 5.90282 5.31432 5.31432C5.90282 4.72582 6.60801 4.26704 7.3845 3.9675C8.45479 3.5711 9.58524 3.36155 10.7265 3.348C12.624 3.261 13.194 3.243 18 3.243ZM18 0C13.1115 0 12.498 0.021 10.578 0.108C9.08516 0.138144 7.60824 0.421154 6.21 0.945C5.01409 1.40745 3.92799 2.11467 3.02133 3.02133C2.11467 3.92799 1.40745 5.01409 0.945 6.21C0.420988 7.60871 0.137975 9.08616 0.108 10.5795C0.021 12.4995 0 13.11 0 18C0 22.89 0.021 23.502 0.108 25.422C0.138144 26.9148 0.421154 28.3918 0.945 29.79C1.40745 30.9859 2.11467 32.072 3.02133 32.9787C3.92799 33.8853 5.01409 34.5926 6.21 35.055C7.60871 35.579 9.08616 35.862 10.5795 35.892C12.4995 35.979 13.1115 36 18 36C22.8885 36 23.502 35.979 25.422 35.892C26.9153 35.862 28.3928 35.579 29.7915 35.055C30.9874 34.5926 32.0735 33.8853 32.9802 32.9787C33.8868 32.072 34.5941 30.9859 35.0565 29.79C35.58 28.3912 35.8625 26.9138 35.892 25.4205C35.979 23.5005 36 22.89 36 18C36 13.11 35.979 12.498 35.892 10.578C35.8619 9.08516 35.5788 7.60824 35.055 6.21C34.5926 5.01409 33.8853 3.92799 32.9787 3.02133C32.072 2.11467 30.9859 1.40745 29.79 0.945C28.3912 0.4215 26.9138 0.138995 25.4205 0.1095C23.5005 0.0194999 22.89 0 18 0Z" fill="#0B0B0B"/>
</g>
</svg>
