<svg width="38" height="36" viewBox="0 0 38 36" fill="none" xmlns="http://www.w3.org/2000/svg">
<path id="Vector" d="M8.54952 36V11.7109H0.476315V36H8.54952ZM4.51396 8.3926C7.32923 8.3926 9.0816 6.52748 9.0816 4.1967C9.02915 1.81335 7.32934 0 4.56739 0C1.80587 0 0 1.81339 0 4.1967C0 6.52759 1.75194 8.3926 4.46126 8.3926H4.51371H4.51396ZM13.018 36H21.0912V22.4358C21.0912 21.7098 21.1437 20.9846 21.3569 20.4657C21.9405 19.0153 23.2689 17.5131 25.499 17.5131C28.4204 17.5131 29.5891 19.7405 29.5891 23.0057V35.9998H37.6618V22.0727C37.6618 14.612 33.6789 11.1406 28.3672 11.1406C24.012 11.1406 22.0998 13.575 21.0375 15.2331H21.0914V11.7104H13.0182C13.1241 13.9895 13.0182 35.9995 13.0182 35.9995L13.018 36Z" fill="#0B0B0B"/>
</svg>
